<?xml version="1.0" encoding="UTF-8"?>
<!DOCTYPE svg PUBLIC "-//W3C//DTD SVG 1.1//EN" "http://www.w3.org/Graphics/SVG/1.1/DTD/svg11.dtd">
<svg xmlns="http://www.w3.org/2000/svg" version="1.1" width="512px" height="512px" style="shape-rendering:geometricPrecision; text-rendering:geometricPrecision; image-rendering:optimizeQuality; fill-rule:evenodd; clip-rule:evenodd" xmlns:xlink="http://www.w3.org/1999/xlink">
<g><path style="opacity:0.972" fill="#000000" d="M 142.5,-0.5 C 150.167,-0.5 157.833,-0.5 165.5,-0.5C 194.486,6.31966 212.319,24.3197 219,53.5C 219.333,79.5 219.667,105.5 220,131.5C 226.54,144.035 229.707,157.368 229.5,171.5C 246.833,171.5 264.167,171.5 281.5,171.5C 281.293,157.368 284.46,144.035 291,131.5C 291.333,105.5 291.667,79.5 292,53.5C 298.681,24.3197 316.514,6.31966 345.5,-0.5C 353.167,-0.5 360.833,-0.5 368.5,-0.5C 394.449,5.41414 411.616,21.0808 420,46.5C 424.333,64.8333 428.667,83.1667 433,101.5C 448.661,115.136 458.994,132.136 464,152.5C 479.795,228.982 495.629,305.315 511.5,381.5C 511.5,391.5 511.5,401.5 511.5,411.5C 500.503,467.163 467.17,500.497 411.5,511.5C 401.5,511.5 391.5,511.5 381.5,511.5C 325.846,500.679 292.68,467.346 282,411.5C 281.5,388.169 281.333,364.836 281.5,341.5C 264.167,341.5 246.833,341.5 229.5,341.5C 229.667,364.836 229.5,388.169 229,411.5C 218.324,467.343 185.157,500.676 129.5,511.5C 119.5,511.5 109.5,511.5 99.5,511.5C 43.8333,500.5 10.5,467.167 -0.5,411.5C -0.5,401.5 -0.5,391.5 -0.5,381.5C 15.3714,305.315 31.2047,228.982 47,152.5C 52.0059,132.136 62.3392,115.136 78,101.5C 82.3333,83.1667 86.6667,64.8333 91,46.5C 99.3447,21.091 116.511,5.42437 142.5,-0.5 Z M 153.5,29.5 C 174.765,31.5983 186.598,43.265 189,64.5C 189.667,75.1667 189.667,85.8333 189,96.5C 165.996,82.0821 141.162,77.7488 114.5,83.5C 116.637,69.9439 120.47,56.9439 126,44.5C 133.206,35.6511 142.373,30.6511 153.5,29.5 Z M 356.5,29.5 C 373.354,30.8554 384.521,39.5221 390,55.5C 392.486,64.7753 394.652,74.1087 396.5,83.5C 369.961,77.7001 345.295,82.0335 322.5,96.5C 321.334,85.8489 321.168,75.1823 322,64.5C 324.344,43.6563 335.844,31.9897 356.5,29.5 Z M 137.5,111.5 C 174.558,115.724 195.058,136.391 199,173.5C 199.667,221.5 199.667,269.5 199,317.5C 161.694,281.386 118.527,272.219 69.5,290C 62.2623,293.2 55.429,297.033 49,301.5C 57.0126,257.77 65.6793,214.103 75,170.5C 81.2291,135.098 102.062,115.432 137.5,111.5 Z M 372.5,111.5 C 408.545,115.041 429.711,134.708 436,170.5C 445.321,214.103 453.987,257.77 462,301.5C 428.028,279.562 391.861,275.396 353.5,289C 337.668,295.66 323.835,305.16 312,317.5C 311.333,269.5 311.333,221.5 312,173.5C 315.877,136.791 336.044,116.124 372.5,111.5 Z M 229.5,201.5 C 246.833,201.5 264.167,201.5 281.5,201.5C 281.5,238.167 281.5,274.833 281.5,311.5C 264.167,311.5 246.833,311.5 229.5,311.5C 229.5,274.833 229.5,238.167 229.5,201.5 Z M 113.5,311.5 C 156.973,314.485 184.807,336.818 197,378.5C 203.48,421.037 187.98,452.537 150.5,473C 113.421,487.918 80.5878,481.418 52,453.5C 29.9626,427.306 24.6293,397.972 36,365.5C 51.0653,332.05 76.8986,314.05 113.5,311.5 Z M 395.5,311.5 C 438.973,314.485 466.807,336.818 479,378.5C 485.48,421.037 469.98,452.537 432.5,473C 395.421,487.918 362.588,481.418 334,453.5C 311.963,427.306 306.629,397.972 318,365.5C 333.065,332.05 358.899,314.05 395.5,311.5 Z"/></g>
</svg>
