<?xml version="1.0" encoding="UTF-8"?>
<!DOCTYPE svg PUBLIC "-//W3C//DTD SVG 1.1//EN" "http://www.w3.org/Graphics/SVG/1.1/DTD/svg11.dtd">
<svg xmlns="http://www.w3.org/2000/svg" version="1.1" width="512px" height="512px" style="shape-rendering:geometricPrecision; text-rendering:geometricPrecision; image-rendering:optimizeQuality; fill-rule:evenodd; clip-rule:evenodd" xmlns:xlink="http://www.w3.org/1999/xlink">
<g><path style="opacity:0.929" fill="#000000" d="M 511.5,319.5 C 511.5,329.833 511.5,340.167 511.5,350.5C 501.031,406.137 468.031,439.971 412.5,452C 365.267,457.6 327.101,441.766 298,404.5C 283.804,383.745 276.304,360.745 275.5,335.5C 276.881,313.529 277.381,291.529 277,269.5C 262.667,260.167 248.333,260.167 234,269.5C 234.155,291.47 234.655,313.47 235.5,335.5C 233.577,379.521 214.244,413.355 177.5,437C 134.926,459.794 92.9261,458.794 51.5,434C 22.3502,413.535 5.01689,385.702 -0.5,350.5C -0.5,340.167 -0.5,329.833 -0.5,319.5C 1.16662,311.172 3.33329,302.838 6,294.5C 23.3895,249.388 41.0562,204.388 59,159.5C 68.6105,148.398 80.1105,139.731 93.5,133.5C 102.603,113.626 111.437,93.6263 120,73.5C 151.77,49.089 179.77,52.7557 204,84.5C 205.519,106.807 206.853,129.14 208,151.5C 218.164,161.342 225.497,173.009 230,186.5C 246.985,177.209 263.985,177.209 281,186.5C 285.557,173.045 292.89,161.378 303,151.5C 304.493,129.524 305.826,107.524 307,85.5C 327.368,55.9577 353.202,50.1244 384.5,68C 387.28,69.8123 389.78,71.979 392,74.5C 400.333,93.8333 408.667,113.167 417,132.5C 428.025,138.51 438.359,145.51 448,153.5C 449.667,155.833 451.333,158.167 453,160.5C 470.333,205.167 487.667,249.833 505,294.5C 507.667,302.838 509.833,311.172 511.5,319.5 Z M 153.5,73.5 C 168.486,72.6673 180.319,78.3339 189,90.5C 190.147,106.502 190.813,122.502 191,138.5C 173.585,129.015 154.918,124.348 135,124.5C 128.393,124.356 121.893,125.023 115.5,126.5C 115.167,126.167 114.833,125.833 114.5,125.5C 120.392,111.383 126.559,97.3826 133,83.5C 139.199,78.6494 146.032,75.316 153.5,73.5 Z M 346.5,73.5 C 359,72.4996 369.833,76.1662 379,84.5C 384.667,97.5 390.333,110.5 396,123.5C 396.749,124.635 396.583,125.635 395.5,126.5C 369.651,122.145 344.984,125.812 321.5,137.5C 320.611,122.17 320.777,106.837 322,91.5C 328.197,82.6675 336.364,76.6675 346.5,73.5 Z M 131.5,139.5 C 149.827,139.664 167.16,143.831 183.5,152C 200.374,162.896 211.541,178.063 217,197.5C 217.902,222.831 218.236,248.164 218,273.5C 187.397,228.841 145.231,211.007 91.5,220C 73.8822,223.894 58.0489,231.394 44,242.5C 51.7667,220.879 59.7667,199.212 68,177.5C 69.4728,173.221 71.4728,169.221 74,165.5C 90.2125,150.141 109.379,141.474 131.5,139.5 Z M 467.5,242.5 C 430.094,215.515 389.761,210.348 346.5,227C 324.03,237.134 306.197,252.634 293,273.5C 293.264,248.523 293.598,223.523 294,198.5C 302.715,169.117 321.882,150.617 351.5,143C 384.708,135.009 413.541,142.842 438,166.5C 448.679,191.521 458.512,216.854 467.5,242.5 Z M 247.5,195.5 C 258.43,194.067 268.43,196.4 277.5,202.5C 277.617,218.44 277.617,234.44 277.5,250.5C 262.835,244.88 248.335,245.214 234,251.5C 233.333,235.167 233.333,218.833 234,202.5C 238.232,199.469 242.732,197.135 247.5,195.5 Z M 114.5,232.5 C 159.054,234.177 191.22,254.844 211,294.5C 228.082,341.336 218.249,381.503 181.5,415C 145.588,441.187 107.588,444.52 67.5,425C 27.7868,400.581 10.6201,365.081 16,318.5C 24.6045,277.439 48.7712,250.272 88.5,237C 97.1806,234.721 105.847,233.221 114.5,232.5 Z M 391.5,232.5 C 435.168,234.058 467.001,254.058 487,292.5C 505.268,339.829 495.768,380.663 458.5,415C 422.588,441.187 384.588,444.52 344.5,425C 304.785,400.571 287.618,365.071 293,318.5C 301.605,277.439 325.771,250.272 365.5,237C 374.181,234.721 382.847,233.221 391.5,232.5 Z M 112.5,276.5 C 136.597,276.46 155.097,286.46 168,306.5C 182.444,338.895 175.277,365.395 146.5,386C 115.382,400.445 89.2152,394.279 68,367.5C 51.8889,337.063 56.7222,310.563 82.5,288C 91.7437,281.868 101.744,278.035 112.5,276.5 Z M 389.5,276.5 C 413.597,276.46 432.097,286.46 445,306.5C 458.297,334.885 453.464,359.718 430.5,381C 412.027,394.47 392.027,397.136 370.5,389C 342.213,373.59 331.379,350.09 338,318.5C 346.945,294.386 364.112,280.386 389.5,276.5 Z"/></g>
<g><path style="opacity:0.924" fill="#000000" d="M 105.5,261.5 C 143.089,258.369 169.923,273.702 186,307.5C 197.509,342.309 189.342,371.476 161.5,395C 131.833,414.333 102.167,414.333 72.5,395C 44.6589,371.482 36.4922,342.315 48,307.5C 59.5464,282.496 78.7131,267.162 105.5,261.5 Z M 112.5,276.5 C 101.744,278.035 91.7437,281.868 82.5,288C 56.7222,310.563 51.8889,337.063 68,367.5C 89.2152,394.279 115.382,400.445 146.5,386C 175.277,365.395 182.444,338.895 168,306.5C 155.097,286.46 136.597,276.46 112.5,276.5 Z"/></g>
<g><path style="opacity:0.924" fill="#000000" d="M 382.5,261.5 C 420.089,258.369 446.923,273.702 463,307.5C 475.031,345.587 464.865,376.087 432.5,399C 396.866,416.815 365.033,411.649 337,383.5C 315.427,354.091 314.094,323.758 333,292.5C 345.671,275.921 362.171,265.588 382.5,261.5 Z M 389.5,276.5 C 364.112,280.386 346.945,294.386 338,318.5C 331.379,350.09 342.213,373.59 370.5,389C 392.027,397.136 412.027,394.47 430.5,381C 453.464,359.718 458.297,334.885 445,306.5C 432.097,286.46 413.597,276.46 389.5,276.5 Z"/></g>
</svg>
