<?xml version="1.0" encoding="UTF-8"?>
<!DOCTYPE svg PUBLIC "-//W3C//DTD SVG 1.1//EN" "http://www.w3.org/Graphics/SVG/1.1/DTD/svg11.dtd">
<svg xmlns="http://www.w3.org/2000/svg" version="1.1" width="512px" height="512px" style="shape-rendering:geometricPrecision; text-rendering:geometricPrecision; image-rendering:optimizeQuality; fill-rule:evenodd; clip-rule:evenodd" xmlns:xlink="http://www.w3.org/1999/xlink">
<g><path style="opacity:0.931" fill="#000000" d="M 207.5,39.5 C 227.477,37.0993 243.644,43.7659 256,59.5C 268.108,43.235 284.275,36.735 304.5,40C 321.223,44.182 332.889,54.182 339.5,70C 370.623,71.2887 387.623,87.4554 390.5,118.5C 390.211,122.731 389.545,126.898 388.5,131C 423.639,146.356 436.972,172.856 428.5,210.5C 435.168,217.821 440.334,226.155 444,235.5C 448.618,251.619 446.785,266.953 438.5,281.5C 452.772,305.939 451.605,329.606 435,352.5C 428.018,360.157 419.685,365.824 410,369.5C 410.824,375.94 411.657,382.44 412.5,389C 410.606,417.718 395.939,436.218 368.5,444.5C 347.736,469.362 321.736,477.195 290.5,468C 275.655,461.992 263.988,452.159 255.5,438.5C 230.932,472.642 199.598,480.476 161.5,462C 154.39,457.059 148.057,451.225 142.5,444.5C 115.295,436.286 100.628,417.953 98.5,389.5C 99.297,382.763 100.13,376.096 101,369.5C 72.9723,357.464 60.3056,336.131 63,305.5C 64.5036,296.819 67.6702,288.819 72.5,281.5C 59.2498,255.433 62.5831,231.766 82.5,210.5C 74.0281,172.856 87.3614,146.356 122.5,131C 116.966,102.393 127.633,82.7263 154.5,72C 160.117,70.9484 165.784,70.2818 171.5,70C 178.572,53.9709 190.572,43.8042 207.5,39.5 Z M 209.5,56.5 C 226.176,54.7507 238.009,61.4173 245,76.5C 245.966,81.9345 247.299,87.2678 249,92.5C 253.333,96.5 257.667,96.5 262,92.5C 262.857,80.956 267.357,71.1227 275.5,63C 294.761,51.4221 310.428,55.0888 322.5,74C 315.07,78.4327 308.57,83.9327 303,90.5C 295.876,102.332 299.043,107.832 312.5,107C 323.857,88.325 339.523,83.325 359.5,92C 372.004,101.845 375.837,114.345 371,129.5C 341.226,132.274 321.892,147.941 313,176.5C 311.782,181.455 311.449,186.455 312,191.5C 314.897,196.155 319.063,197.655 324.5,196C 326.049,194.786 327.215,193.286 328,191.5C 332.129,160.853 349.629,146.353 380.5,148C 406.523,156.539 417.357,174.372 413,201.5C 404.796,197.547 396.296,196.38 387.5,198C 382.564,202.344 382.231,207.01 386.5,212C 408.953,213.456 423.119,224.956 429,246.5C 430.258,268.567 420.425,283.067 399.5,290C 393.539,290.997 387.539,291.663 381.5,292C 376.167,297 376.167,302 381.5,307C 398.098,309.882 412.931,306.049 426,295.5C 435.717,315.815 431.883,333.315 414.5,348C 410.19,350.549 405.69,352.715 401,354.5C 396.848,348.176 391.348,343.51 384.5,340.5C 376.473,342.22 373.973,346.887 377,354.5C 396.962,371.314 400.295,390.981 387,413.5C 370.962,430.095 352.795,432.928 332.5,422C 321.97,420.192 318.137,424.359 321,434.5C 327.651,439.741 335.151,443.241 343.5,445C 324.357,457.249 305.024,457.582 285.5,446C 270.776,434.544 263.276,419.377 263,400.5C 258,395.167 253,395.167 248,400.5C 244.948,437.893 224.782,455.726 187.5,454C 180.189,452.345 173.522,449.345 167.5,445C 175.849,443.241 183.349,439.741 190,434.5C 192.863,424.359 189.03,420.192 178.5,422C 158.19,432.935 140.023,430.101 124,413.5C 113.038,397.769 112.704,381.769 123,365.5C 126.803,360.944 130.803,356.61 135,352.5C 135.637,343.131 131.471,339.631 122.5,342C 117.667,345.5 113.5,349.667 110,354.5C 88.2428,346.398 78.2428,330.731 80,307.5C 80.6967,303.072 82.3634,299.072 85,295.5C 98.1771,305.836 113.01,309.669 129.5,307C 135.576,299.958 134.41,294.458 126,290.5C 107.585,292.124 93.9181,284.791 85,268.5C 76.9463,242.774 85.4463,224.941 110.5,215C 114.469,214.147 118.469,213.481 122.5,213C 129.421,207.257 129.088,201.924 121.5,197C 113.31,196.615 105.477,198.115 98,201.5C 93.6434,174.372 104.477,156.539 130.5,148C 151.64,145.32 167.474,153.154 178,171.5C 180.808,177.87 182.475,184.537 183,191.5C 185.435,196.224 189.269,197.724 194.5,196C 196.667,195.167 198.167,193.667 199,191.5C 198.107,162.9 184.274,143.4 157.5,133C 151.963,131.274 146.296,130.274 140.5,130C 135.041,114.709 138.708,102.042 151.5,92C 171.464,83.3206 187.131,88.3206 198.5,107C 211.467,107.589 214.634,102.089 208,90.5C 202.43,83.9327 195.93,78.4327 188.5,74C 193.302,65.3507 200.302,59.5174 209.5,56.5 Z"/></g>
<g><path style="opacity:0.994" fill="#000000" d="M 251.5,110.5 C 256.223,109.553 260.056,110.886 263,114.5C 263.667,202.167 263.667,289.833 263,377.5C 257.924,382.756 252.924,382.756 248,377.5C 247.333,289.833 247.333,202.167 248,114.5C 249.102,113.051 250.269,111.718 251.5,110.5 Z"/></g>
<g><path style="opacity:0.922" fill="#000000" d="M 212.5,211.5 C 223.274,211.764 226.44,216.764 222,226.5C 199.652,251.101 173.486,255.934 143.5,241C 140.319,238.814 137.485,236.314 135,233.5C 132.885,226.388 135.385,222.055 142.5,220.5C 147.201,222.368 151.534,224.868 155.5,228C 178.757,236.938 197.757,231.438 212.5,211.5 Z"/></g>
<g><path style="opacity:0.922" fill="#000000" d="M 292.5,211.5 C 295.32,211.248 297.986,211.748 300.5,213C 312.172,229.333 327.839,235.333 347.5,231C 354.82,228.007 361.82,224.507 368.5,220.5C 375.615,222.055 378.115,226.388 376,233.5C 365.005,244.284 351.672,249.618 336,249.5C 313.436,249.481 296.936,239.648 286.5,220C 287.187,216.16 289.187,213.327 292.5,211.5 Z"/></g>
<g><path style="opacity:0.926" fill="#000000" d="M 206.5,288.5 C 216.348,290.359 218.681,295.526 213.5,304C 192.291,312.918 183.457,328.751 187,351.5C 206.543,366.129 212.876,385.129 206,408.5C 198.235,413.825 193.068,411.992 190.5,403C 194.592,384.183 187.925,370.516 170.5,362C 165.563,360.915 160.563,360.248 155.5,360C 148.857,356.119 147.857,351.119 152.5,345C 157.708,343.603 163.041,343.103 168.5,343.5C 169.581,316.961 182.248,298.627 206.5,288.5 Z"/></g>
<g><path style="opacity:0.927" fill="#000000" d="M 301.5,288.5 C 322.69,294.859 335.856,308.859 341,330.5C 341.923,334.79 342.423,339.123 342.5,343.5C 347.959,343.103 353.292,343.603 358.5,345C 362.588,349.982 362.254,354.649 357.5,359C 329.324,360.814 316.991,375.481 320.5,403C 317.932,411.992 312.765,413.825 305,408.5C 298.126,385.123 304.459,366.123 324,351.5C 327.543,328.751 318.709,312.918 297.5,304C 292.715,297.195 294.048,292.028 301.5,288.5 Z"/></g>
</svg>
