<?xml version="1.0" encoding="UTF-8"?>
<!DOCTYPE svg PUBLIC "-//W3C//DTD SVG 1.1//EN" "http://www.w3.org/Graphics/SVG/1.1/DTD/svg11.dtd">
<svg xmlns="http://www.w3.org/2000/svg" version="1.1" width="512px" height="512px" style="shape-rendering:geometricPrecision; text-rendering:geometricPrecision; image-rendering:optimizeQuality; fill-rule:evenodd; clip-rule:evenodd" xmlns:xlink="http://www.w3.org/1999/xlink">
<g><path style="opacity:0.975" fill="#000000" d="M 206.5,19.5 C 241.531,19.0479 276.531,19.5479 311.5,21C 366.764,32.597 403.598,65.097 422,118.5C 427.061,138.508 428.894,158.842 427.5,179.5C 444.223,179.059 460.89,179.559 477.5,181C 492.944,186.709 502.777,197.542 507,213.5C 507.667,252.167 507.667,290.833 507,329.5C 502.774,345.471 492.941,356.304 477.5,362C 455.217,363.624 432.884,363.957 410.5,363C 407.667,361.5 405.5,359.333 404,356.5C 403.949,285.819 403.283,215.153 402,144.5C 393.476,96.6501 366.309,64.8168 320.5,49C 314.617,47.1566 308.617,45.8232 302.5,45C 271.167,43 239.833,43 208.5,45C 164.731,52.7792 133.898,76.9459 116,117.5C 112.571,126.217 110.237,135.217 109,144.5C 107.385,213.486 107.052,282.486 108,351.5C 111.36,396.194 134.86,423.694 178.5,434C 184.511,434.668 190.511,435.002 196.5,435C 207.628,408.68 227.461,398.18 256,403.5C 273.425,400.277 288.925,404.11 302.5,415C 316.533,430.931 319.366,448.765 311,468.5C 304.375,480.115 294.542,487.615 281.5,491C 264.5,491.667 247.5,491.667 230.5,491C 213.795,486.631 202.461,476.297 196.5,460C 142.22,459.296 106.053,433.462 88,382.5C 86.1237,376.286 84.957,369.952 84.5,363.5C 68.8298,363.667 53.1631,363.5 37.5,363C 19.6578,358.491 8.49117,347.325 4,329.5C 3.33333,290.833 3.33333,252.167 4,213.5C 8.49117,195.675 19.6578,184.509 37.5,180C 52.8297,179.5 68.163,179.333 83.5,179.5C 78.5352,128.629 94.8686,86.1293 132.5,52C 154.196,34.3167 178.863,23.4834 206.5,19.5 Z M 230.5,193.5 C 231.497,193.47 232.164,193.97 232.5,195C 239.068,216.203 245.734,237.369 252.5,258.5C 238.5,259.833 224.5,259.833 210.5,258.5C 217.576,236.941 224.242,215.275 230.5,193.5 Z M 47.5,203.5 C 59.5,203.5 71.5,203.5 83.5,203.5C 83.5,248.833 83.5,294.167 83.5,339.5C 69.455,339.888 55.455,339.388 41.5,338C 35.3333,335.833 31.1667,331.667 29,325.5C 27.3754,291.534 27.042,257.534 28,223.5C 29.3448,211.657 35.8448,204.99 47.5,203.5 Z M 427.5,203.5 C 441.545,203.112 455.545,203.612 469.5,205C 478.019,208.196 482.519,214.363 483,223.5C 483.667,255.5 483.667,287.5 483,319.5C 481.833,331.333 475.333,337.833 463.5,339C 451.505,339.5 439.505,339.667 427.5,339.5C 427.5,294.167 427.5,248.833 427.5,203.5 Z M 239.5,427.5 C 250.172,427.333 260.839,427.5 271.5,428C 286.326,430.137 292.493,438.637 290,453.5C 286.804,462.019 280.637,466.519 271.5,467C 260.833,467.667 250.167,467.667 239.5,467C 224.674,464.863 218.507,456.363 221,441.5C 224.416,433.057 230.583,428.39 239.5,427.5 Z"/></g>
<g><path style="opacity:0.964" fill="#000000" d="M 218.5,163.5 C 227.173,163.334 235.84,163.5 244.5,164C 247.333,165.5 249.5,167.667 251,170.5C 265.217,214.648 278.717,258.981 291.5,303.5C 289.686,314.747 283.352,318.247 272.5,314C 270.622,312.457 269.122,310.624 268,308.5C 265.031,300.285 262.531,291.952 260.5,283.5C 241.167,283.5 221.833,283.5 202.5,283.5C 200.469,291.952 197.969,300.285 195,308.5C 190.513,315.549 184.346,317.383 176.5,314C 171.789,309.86 170.289,304.694 172,298.5C 185.333,255.833 198.667,213.167 212,170.5C 213.694,167.642 215.861,165.309 218.5,163.5 Z M 230.5,193.5 C 224.242,215.275 217.576,236.941 210.5,258.5C 224.5,259.833 238.5,259.833 252.5,258.5C 245.734,237.369 239.068,216.203 232.5,195C 232.164,193.97 231.497,193.47 230.5,193.5 Z"/></g>
<g><path style="opacity:0.99" fill="#000000" d="M 322.5,163.5 C 329.852,161.759 335.352,164.092 339,170.5C 339.667,216.5 339.667,262.5 339,308.5C 334.513,315.549 328.346,317.383 320.5,314C 318.622,312.457 317.122,310.624 316,308.5C 315.333,262.5 315.333,216.5 316,170.5C 317.694,167.642 319.861,165.309 322.5,163.5 Z"/></g>
</svg>
