<?xml version="1.0" encoding="UTF-8"?>
<!DOCTYPE svg PUBLIC "-//W3C//DTD SVG 1.1//EN" "http://www.w3.org/Graphics/SVG/1.1/DTD/svg11.dtd">
<svg xmlns="http://www.w3.org/2000/svg" version="1.1" width="512px" height="512px" style="shape-rendering:geometricPrecision; text-rendering:geometricPrecision; image-rendering:optimizeQuality; fill-rule:evenodd; clip-rule:evenodd" xmlns:xlink="http://www.w3.org/1999/xlink">
<g><path style="opacity:0.957" fill="#000000" d="M -0.5,421.5 C -0.5,294.167 -0.5,166.833 -0.5,39.5C 4.31811,23.1827 14.9848,12.6827 31.5,8C 158.833,7.33333 286.167,7.33333 413.5,8C 430,12.5 440.5,23 445,39.5C 445.5,106.166 445.667,172.833 445.5,239.5C 439.833,239.5 434.167,239.5 428.5,239.5C 428.667,174.832 428.5,110.166 428,45.5C 425.833,34 419,27.1667 407.5,25C 283.833,24.3333 160.167,24.3333 36.5,25C 26,27.5 19.5,34 17,44.5C 16.3333,168.5 16.3333,292.5 17,416.5C 19.5,427 26,433.5 36.5,436C 109.499,436.5 182.499,436.667 255.5,436.5C 255.5,442.5 255.5,448.5 255.5,454.5C 180.811,454.972 106.145,454.472 31.5,453C 14.9848,448.317 4.31811,437.817 -0.5,421.5 Z M 68.5,140.5 C 72.1817,140.335 75.8484,140.501 79.5,141C 80.624,141.249 81.624,141.749 82.5,142.5C 77.5,147.833 72.5,153.167 67.5,158.5C 71.1983,163.384 75.5317,167.218 80.5,170C 85.3481,164.985 90.3481,160.152 95.5,155.5C 100.299,167.608 97.2994,177.442 86.5,185C 74.0052,191.226 63.1719,189.06 54,178.5C 45.7033,160.768 50.5366,148.101 68.5,140.5 Z"/></g>
<g><path style="opacity:0.944" fill="#000000" d="M 32.5,40.5 C 38.1667,40.5 43.8333,40.5 49.5,40.5C 49.5,46.1667 49.5,51.8333 49.5,57.5C 43.8333,57.5 38.1667,57.5 32.5,57.5C 32.5,51.8333 32.5,46.1667 32.5,40.5 Z"/></g>
<g><path style="opacity:0.944" fill="#000000" d="M 65.5,40.5 C 71.1667,40.5 76.8333,40.5 82.5,40.5C 82.5,46.1667 82.5,51.8333 82.5,57.5C 76.8333,57.5 71.1667,57.5 65.5,57.5C 65.5,51.8333 65.5,46.1667 65.5,40.5 Z"/></g>
<g><path style="opacity:0.944" fill="#000000" d="M 98.5,40.5 C 104.167,40.5 109.833,40.5 115.5,40.5C 115.5,46.1667 115.5,51.8333 115.5,57.5C 109.833,57.5 104.167,57.5 98.5,57.5C 98.5,51.8333 98.5,46.1667 98.5,40.5 Z"/></g>
<g><path style="opacity:0.971" fill="#000000" d="M 32.5,73.5 C 159.167,73.5 285.833,73.5 412.5,73.5C 412.5,79.1667 412.5,84.8333 412.5,90.5C 285.833,90.5 159.167,90.5 32.5,90.5C 32.5,84.8333 32.5,79.1667 32.5,73.5 Z"/></g>
<g><path style="opacity:0.934" fill="#000000" d="M 116.5,108.5 C 121.419,111.748 125.753,115.748 129.5,120.5C 122.637,127.528 115.97,134.695 109.5,142C 120.445,164.877 116.112,184.211 96.5,200C 74.2234,211.151 55.0567,207.318 39,188.5C 26.7131,165.157 30.8798,145.324 51.5,129C 66.5068,120.18 81.3402,120.347 96,129.5C 103.036,122.632 109.869,115.632 116.5,108.5 Z M 68.5,140.5 C 50.5366,148.101 45.7033,160.768 54,178.5C 63.1719,189.06 74.0052,191.226 86.5,185C 97.2994,177.442 100.299,167.608 95.5,155.5C 90.3481,160.152 85.3481,164.985 80.5,170C 75.5317,167.218 71.1983,163.384 67.5,158.5C 72.5,153.167 77.5,147.833 82.5,142.5C 81.624,141.749 80.624,141.249 79.5,141C 75.8484,140.501 72.1817,140.335 68.5,140.5 Z"/></g>
<g><path style="opacity:0.967" fill="#000000" d="M 139.5,139.5 C 186.5,139.5 233.5,139.5 280.5,139.5C 280.5,145.167 280.5,150.833 280.5,156.5C 233.5,156.5 186.5,156.5 139.5,156.5C 139.5,150.833 139.5,145.167 139.5,139.5 Z"/></g>
<g><path style="opacity:0.966" fill="#000000" d="M 296.5,139.5 C 324.167,139.5 351.833,139.5 379.5,139.5C 379.5,145.167 379.5,150.833 379.5,156.5C 351.833,156.5 324.167,156.5 296.5,156.5C 296.5,150.833 296.5,145.167 296.5,139.5 Z"/></g>
<g><path style="opacity:0.951" fill="#000000" d="M 139.5,172.5 C 159.167,172.5 178.833,172.5 198.5,172.5C 198.5,178.167 198.5,183.833 198.5,189.5C 178.833,189.5 159.167,189.5 139.5,189.5C 139.5,183.833 139.5,178.167 139.5,172.5 Z"/></g>
<g><path style="opacity:0.959" fill="#000000" d="M 213.5,172.5 C 252.5,172.5 291.5,172.5 330.5,172.5C 330.5,178.167 330.5,183.833 330.5,189.5C 291.5,189.5 252.5,189.5 213.5,189.5C 213.5,183.833 213.5,178.167 213.5,172.5 Z"/></g>
<g><path style="opacity:0.934" fill="#000000" d="M 116.5,207.5 C 121.616,210.781 125.949,214.948 129.5,220C 122.524,226.644 115.857,233.644 109.5,241C 120.445,263.877 116.112,283.211 96.5,299C 78.6062,308.624 61.6062,307.29 45.5,295C 29.4047,277.585 27.5714,258.752 40,238.5C 56.2077,220.854 74.8744,217.52 96,228.5C 103.036,221.632 109.869,214.632 116.5,207.5 Z M 68.5,239.5 C 72.1817,239.335 75.8484,239.501 79.5,240C 80.6721,240.419 81.6721,241.085 82.5,242C 77.3182,247.015 72.3182,252.181 67.5,257.5C 71.1983,262.384 75.5317,266.218 80.5,269C 85.3653,263.8 90.5319,258.967 96,254.5C 99.9521,265.562 97.4521,275.062 88.5,283C 69.7421,292.278 56.9087,287.111 50,267.5C 48.9211,253.313 55.0878,243.98 68.5,239.5 Z"/></g>
<g><path style="opacity:0.967" fill="#000000" d="M 139.5,238.5 C 186.5,238.5 233.5,238.5 280.5,238.5C 280.5,244.167 280.5,249.833 280.5,255.5C 233.5,255.5 186.5,255.5 139.5,255.5C 139.5,249.833 139.5,244.167 139.5,238.5 Z"/></g>
<g><path style="opacity:0.943" fill="#000000" d="M 296.5,238.5 C 307.833,238.5 319.167,238.5 330.5,238.5C 330.5,244.167 330.5,249.833 330.5,255.5C 319.167,255.5 307.833,255.5 296.5,255.5C 296.5,249.833 296.5,244.167 296.5,238.5 Z"/></g>
<g><path style="opacity:0.934" fill="#000000" d="M 511.5,363.5 C 511.5,373.833 511.5,384.167 511.5,394.5C 503.032,446.143 474.032,480.643 424.5,498C 374.356,511.175 331.19,499.341 295,462.5C 262.395,422.872 255.062,378.872 273,330.5C 295.784,282.336 333.951,257.002 387.5,254.5C 435.877,256.589 472.377,278.256 497,319.5C 504.317,333.469 509.15,348.135 511.5,363.5 Z M 376.5,272.5 C 427.178,270.747 463.678,292.414 486,337.5C 500.956,377.2 495.622,413.867 470,447.5C 436.512,483.58 396.345,494.08 349.5,479C 306.137,460.151 283.137,426.985 280.5,379.5C 283.628,328.701 308.961,294.534 356.5,277C 363.259,275.285 369.925,273.785 376.5,272.5 Z"/></g>
<g><path style="opacity:0.951" fill="#000000" d="M 139.5,271.5 C 159.167,271.5 178.833,271.5 198.5,271.5C 198.5,277.167 198.5,282.833 198.5,288.5C 178.833,288.5 159.167,288.5 139.5,288.5C 139.5,282.833 139.5,277.167 139.5,271.5 Z"/></g>
<g><path style="opacity:0.957" fill="#000000" d="M 213.5,271.5 C 235.833,271.5 258.167,271.5 280.5,271.5C 280.5,277.167 280.5,282.833 280.5,288.5C 258.167,288.5 235.833,288.5 213.5,288.5C 213.5,282.833 213.5,277.167 213.5,271.5 Z"/></g>
<g><path style="opacity:0.928" fill="#000000" d="M 116.5,306.5 C 121.616,309.781 125.949,313.948 129.5,319C 123.03,326.305 116.363,333.472 109.5,340.5C 121.045,364.965 115.712,384.798 93.5,400C 76.8515,407.247 61.1849,405.58 46.5,395C 29.5603,377.524 27.3936,358.357 40,337.5C 56.2083,319.926 74.875,316.592 96,327.5C 103.036,320.632 109.869,313.632 116.5,306.5 Z M 68.5,338.5 C 71.8499,338.335 75.1832,338.502 78.5,339C 80.0441,339.29 81.3774,339.956 82.5,341C 77.3182,346.015 72.3182,351.181 67.5,356.5C 70.9844,360.485 74.651,364.318 78.5,368C 79.5,368.667 80.5,368.667 81.5,368C 86.3333,363.167 91.1667,358.333 96,353.5C 100.504,367.304 96.3377,377.804 83.5,385C 68.4173,389.54 57.584,384.706 51,370.5C 47.6956,354.772 53.5289,344.105 68.5,338.5 Z"/></g>
<g><path style="opacity:0.929" fill="#000000" d="M 438.5,315.5 C 443.072,318.563 447.239,322.23 451,326.5C 451.667,327.167 451.667,327.833 451,328.5C 418.167,361.333 385.333,394.167 352.5,427C 348.454,430.138 344.454,430.138 340.5,427C 333.405,415.314 327.571,403.147 323,390.5C 327.527,387.903 332.194,385.57 337,383.5C 341.495,390.485 345.495,397.818 349,405.5C 379.035,375.632 408.868,345.632 438.5,315.5 Z"/></g>
<g><path style="opacity:0.967" fill="#000000" d="M 139.5,337.5 C 175.5,337.5 211.5,337.5 247.5,337.5C 247.5,343.167 247.5,348.833 247.5,354.5C 211.5,354.5 175.5,354.5 139.5,354.5C 139.5,348.833 139.5,343.167 139.5,337.5 Z"/></g>
<g><path style="opacity:0.951" fill="#000000" d="M 139.5,370.5 C 159.167,370.5 178.833,370.5 198.5,370.5C 198.5,376.167 198.5,381.833 198.5,387.5C 178.833,387.5 159.167,387.5 139.5,387.5C 139.5,381.833 139.5,376.167 139.5,370.5 Z"/></g>
<g><path style="opacity:0.943" fill="#000000" d="M 213.5,370.5 C 224.833,370.5 236.167,370.5 247.5,370.5C 247.5,376.167 247.5,381.833 247.5,387.5C 236.167,387.5 224.833,387.5 213.5,387.5C 213.5,381.833 213.5,376.167 213.5,370.5 Z"/></g>
</svg>
