<?xml version="1.0" encoding="UTF-8"?>
<!DOCTYPE svg PUBLIC "-//W3C//DTD SVG 1.1//EN" "http://www.w3.org/Graphics/SVG/1.1/DTD/svg11.dtd">
<svg xmlns="http://www.w3.org/2000/svg" version="1.1" width="512px" height="512px" style="shape-rendering:geometricPrecision; text-rendering:geometricPrecision; image-rendering:optimizeQuality; fill-rule:evenodd; clip-rule:evenodd" xmlns:xlink="http://www.w3.org/1999/xlink">
<g><path style="opacity:0.967" fill="#000000" d="M 211.5,-0.5 C 240.833,-0.5 270.167,-0.5 299.5,-0.5C 312.955,3.45032 322.122,12.117 327,25.5C 330.082,39.5803 333.415,53.5803 337,67.5C 351.212,73.7409 364.379,81.5743 376.5,91C 390.646,87.8442 404.646,83.8442 418.5,79C 435.925,75.8056 449.758,81.3056 460,95.5C 473.521,118.543 486.521,141.876 499,165.5C 502.091,177.219 500.425,188.219 494,198.5C 482.648,210.352 470.815,221.686 458.5,232.5C 461.167,247.833 461.167,263.167 458.5,278.5C 468.857,289.024 479.69,299.024 491,308.5C 500.662,320.496 502.996,333.829 498,348.5C 485.586,370.996 472.92,393.329 460,415.5C 448.891,430.956 434.058,436.123 415.5,431C 403.197,427.066 390.864,423.232 378.5,419.5C 365.523,428.328 351.856,436.162 337.5,443C 333.5,456.989 330,471.156 327,485.5C 322.122,498.883 312.955,507.55 299.5,511.5C 270.167,511.5 240.833,511.5 211.5,511.5C 197.183,507.348 188.016,498.015 184,483.5C 181.128,470.138 178.128,456.805 175,443.5C 160.202,436.771 146.202,428.771 133,419.5C 120.833,423.333 108.667,427.167 96.5,431C 78.9687,435.832 64.4687,431.332 53,417.5C 41,396.833 29,376.167 17,355.5C 9.13394,340.094 9.80061,325.094 19,310.5C 30,300.167 41,289.833 52,279.5C 51.3333,263.5 51.3333,247.5 52,231.5C 41,221.167 30,210.833 19,200.5C 11.0444,188.353 9.37771,175.353 14,161.5C 27.6182,136.423 42.1182,111.923 57.5,88C 67.6247,79.2965 79.2914,76.2965 92.5,79C 106.061,82.9646 119.561,87.1313 133,91.5C 145.957,82.2675 159.79,74.4341 174.5,68C 178.043,54.6239 181.21,41.1239 184,27.5C 188.016,12.985 197.183,3.65168 211.5,-0.5 Z M 220.5,31.5 C 244.923,31.0196 269.257,31.5196 293.5,33C 294.893,34.1711 295.727,35.6711 296,37.5C 299.509,53.8688 303.176,70.2021 307,86.5C 308,88.1667 309,89.8333 310,91.5C 319.781,96.3231 329.614,101.156 339.5,106C 349.5,112.667 359.5,119.333 369.5,126C 372.833,126.667 376.167,126.667 379.5,126C 395.766,121.06 411.933,115.893 428,110.5C 429.512,111.257 430.846,112.257 432,113.5C 444.356,134.213 456.19,155.213 467.5,176.5C 464.088,181.419 460.088,185.919 455.5,190C 445.524,198.253 436.024,207.086 427,216.5C 426.089,219.311 425.256,222.144 424.5,225C 428.5,245.333 428.5,265.667 424.5,286C 425.133,289.367 426.3,292.533 428,295.5C 440.683,307.683 453.516,319.683 466.5,331.5C 466.987,332.446 467.32,333.446 467.5,334.5C 455.683,355.463 443.85,376.463 432,397.5C 430.846,398.743 429.512,399.743 428,400.5C 413.256,395.474 398.423,390.641 383.5,386C 378.905,384.607 374.239,384.274 369.5,385C 359.534,391.655 349.534,398.321 339.5,405C 329.614,409.844 319.781,414.677 310,419.5C 309,421.167 308,422.833 307,424.5C 303,441.833 299,459.167 295,476.5C 294.097,477.701 292.931,478.535 291.5,479C 267.303,479.819 243.136,479.652 219,478.5C 217.523,477.556 216.523,476.223 216,474.5C 212.424,456.611 208.09,438.944 203,421.5C 201.5,420 200,418.5 198.5,417C 178.269,408.89 159.602,398.223 142.5,385C 138.833,384.333 135.167,384.333 131.5,385C 116.833,389.667 102.167,394.333 87.5,399C 85.5,399.667 83.5,399.667 81.5,399C 68.2448,377.985 55.9114,356.485 44.5,334.5C 44.6667,333.5 44.8333,332.5 45,331.5C 58.3004,319.868 71.3004,307.868 84,295.5C 84.6667,294.167 85.3333,292.833 86,291.5C 85.8346,279.503 85.3346,267.503 84.5,255.5C 85.3346,243.497 85.8346,231.497 86,219.5C 83.2523,214.748 79.7523,210.581 75.5,207C 65.0348,198.203 54.8681,189.037 45,179.5C 44.3333,177.5 44.3333,175.5 45,173.5C 56.6667,153.5 68.3333,133.5 80,113.5C 81.126,112.056 82.626,111.39 84.5,111.5C 100.252,116.028 115.918,120.861 131.5,126C 135.167,126.667 138.833,126.667 142.5,126C 159.602,112.777 178.269,102.11 198.5,94C 201.433,91.7357 203.6,88.9024 205,85.5C 208.746,68.1036 212.746,50.7703 217,33.5C 218.302,32.9152 219.469,32.2485 220.5,31.5 Z M 246.5,181.5 C 284.654,179.818 311.154,196.485 326,231.5C 335.722,269.011 324.555,298.511 292.5,320C 257.98,336.497 227.146,331.33 200,304.5C 176.974,274.456 175.64,243.456 196,211.5C 208.962,194.938 225.795,184.938 246.5,181.5 Z"/></g>
<g><path style="opacity:0.964" fill="#000000" d="M 243.5,148.5 C 297.852,146.237 335.685,169.904 357,219.5C 372.004,273.613 356.504,316.446 310.5,348C 265.81,370.783 223.81,366.783 184.5,336C 151.717,303.966 141.55,265.8 154,221.5C 169.956,180.035 199.789,155.702 243.5,148.5 Z M 246.5,181.5 C 225.795,184.938 208.962,194.938 196,211.5C 175.64,243.456 176.974,274.456 200,304.5C 227.146,331.33 257.98,336.497 292.5,320C 324.555,298.511 335.722,269.011 326,231.5C 311.154,196.485 284.654,179.818 246.5,181.5 Z"/></g>
</svg>
