<?xml version="1.0" encoding="UTF-8"?>
<!DOCTYPE svg PUBLIC "-//W3C//DTD SVG 1.1//EN" "http://www.w3.org/Graphics/SVG/1.1/DTD/svg11.dtd">
<svg xmlns="http://www.w3.org/2000/svg" version="1.1" width="512px" height="512px" style="shape-rendering:geometricPrecision; text-rendering:geometricPrecision; image-rendering:optimizeQuality; fill-rule:evenodd; clip-rule:evenodd" xmlns:xlink="http://www.w3.org/1999/xlink">
<g><path style="opacity:0.979" fill="#000000" d="M 249.5,51.5 C 259.36,49.3496 266.527,52.6829 271,61.5C 271.333,142.167 271.667,222.833 272,303.5C 293.528,281.638 315.361,260.138 337.5,239C 351.156,234.844 359.489,239.677 362.5,253.5C 361.731,256.51 360.897,259.51 360,262.5C 328.167,294.333 296.333,326.167 264.5,358C 258.5,361.333 252.5,361.333 246.5,358C 214.333,325.833 182.167,293.667 150,261.5C 144.668,247.163 149.502,238.497 164.5,235.5C 168.028,236.106 171.361,237.272 174.5,239C 196,260.5 217.5,282 239,303.5C 239.333,222.833 239.667,142.167 240,61.5C 242.022,56.98 245.189,53.6467 249.5,51.5 Z"/></g>
<g><path style="opacity:0.98" fill="#000000" d="M 49.5,307.5 C 57.4929,307.079 63.3262,310.412 67,317.5C 68.292,340.45 68.9586,363.45 69,386.5C 73.2798,407.447 85.7798,420.614 106.5,426C 156.147,427.143 205.813,427.643 255.5,427.5C 301.833,427.333 348.167,427.167 394.5,427C 420.476,425.355 436.31,411.855 442,386.5C 442.333,364.833 442.667,343.167 443,321.5C 447.814,308.081 456.648,304.581 469.5,311C 472.467,313.1 474.3,315.934 475,319.5C 475.667,343.167 475.667,366.833 475,390.5C 467.583,428.25 445.083,451.083 407.5,459C 304.465,459.989 201.465,459.656 98.5,458C 63.5065,448.671 42.6732,426.171 36,390.5C 35.3333,366.833 35.3333,343.167 36,319.5C 38.1962,312.798 42.6962,308.798 49.5,307.5 Z"/></g>
</svg>
