<?xml version="1.0" encoding="UTF-8"?>
<!DOCTYPE svg PUBLIC "-//W3C//DTD SVG 1.1//EN" "http://www.w3.org/Graphics/SVG/1.1/DTD/svg11.dtd">
<svg xmlns="http://www.w3.org/2000/svg" version="1.1" width="512px" height="512px" style="shape-rendering:geometricPrecision; text-rendering:geometricPrecision; image-rendering:optimizeQuality; fill-rule:evenodd; clip-rule:evenodd" xmlns:xlink="http://www.w3.org/1999/xlink">
<g><path style="opacity:0.972" fill="#000000" d="M 248.5,63.5 C 253.179,63.3342 257.845,63.5008 262.5,64C 264.725,64.5611 266.725,65.5611 268.5,67C 292.333,90.8333 316.167,114.667 340,138.5C 345.801,149.801 344.301,159.968 335.5,169C 326.517,174.921 317.517,174.921 308.5,169C 298.333,158.833 288.167,148.667 278,138.5C 277.667,200.167 277.333,261.833 277,323.5C 272.406,338.216 262.573,343.716 247.5,340C 240.053,336.952 235.553,331.452 234,323.5C 233.667,261.833 233.333,200.167 233,138.5C 222.833,148.667 212.667,158.833 202.5,169C 190.761,175.894 180.261,174.394 171,164.5C 166.333,155.833 166.333,147.167 171,138.5C 193.472,115.028 216.305,91.8614 239.5,69C 242.263,66.6258 245.263,64.7925 248.5,63.5 Z"/></g>
<g><path style="opacity:0.987" fill="#000000" d="M 36.5,212.5 C 49.2532,210.951 58.0865,215.951 63,227.5C 63.3333,280.833 63.6667,334.167 64,387.5C 65.8787,396.092 71.0454,401.592 79.5,404C 197.889,404.994 316.223,404.661 434.5,403C 441.266,399.904 445.432,394.737 447,387.5C 447.333,334.167 447.667,280.833 448,227.5C 453.788,214.527 463.621,210.027 477.5,214C 483.82,216.986 487.987,221.819 490,228.5C 490.667,284.167 490.667,339.833 490,395.5C 484.245,423.588 467.412,440.755 439.5,447C 316.833,447.667 194.167,447.667 71.5,447C 43.5795,440.746 26.7461,423.579 21,395.5C 20.3333,339.833 20.3333,284.167 21,228.5C 23.685,220.65 28.8517,215.316 36.5,212.5 Z"/></g>
</svg>
