<?xml version="1.0" encoding="UTF-8"?>
<!DOCTYPE svg PUBLIC "-//W3C//DTD SVG 1.1//EN" "http://www.w3.org/Graphics/SVG/1.1/DTD/svg11.dtd">
<svg xmlns="http://www.w3.org/2000/svg" version="1.1" width="512px" height="512px" style="shape-rendering:geometricPrecision; text-rendering:geometricPrecision; image-rendering:optimizeQuality; fill-rule:evenodd; clip-rule:evenodd" xmlns:xlink="http://www.w3.org/1999/xlink">
<g><path style="opacity:0.97" fill="#000000" d="M 104.5,-0.5 C 178.833,-0.5 253.167,-0.5 327.5,-0.5C 367.993,41.8007 408.493,84.1341 449,126.5C 452.716,130.548 456.05,134.882 459,139.5C 459.667,243.833 459.667,348.167 459,452.5C 453.463,481.373 436.63,500.206 408.5,509C 357.87,510.155 307.203,510.655 256.5,510.5C 205.797,510.655 155.13,510.155 104.5,509C 76.5951,501.095 59.7618,482.928 54,454.5C 53.3333,321.167 53.3333,187.833 54,54.5C 59.949,26.0554 76.7823,7.72207 104.5,-0.5 Z M 118.5,23.5 C 181.5,23.5 244.5,23.5 307.5,23.5C 307.333,51.1687 307.5,78.8353 308,106.5C 311.576,132.411 326.076,148.578 351.5,155C 378.808,156.407 406.141,156.907 433.5,156.5C 433.667,254.834 433.5,353.167 433,451.5C 429.176,465.651 420.676,475.817 407.5,482C 403.339,483.737 399.005,484.737 394.5,485C 302.5,485.667 210.5,485.667 118.5,485C 95.2964,481.796 82.1298,468.63 79,445.5C 78.3333,318.167 78.3333,190.833 79,63.5C 82.3452,40.3221 95.5118,26.9888 118.5,23.5 Z M 333.5,44.5 C 360.966,72.8013 388.3,101.301 415.5,130C 396.833,130.667 378.167,130.667 359.5,130C 345.9,127.734 337.4,119.901 334,106.5C 333.5,85.836 333.333,65.1694 333.5,44.5 Z"/></g>
<g><path style="opacity:0.951" fill="#000000" d="M 252.5,168.5 C 261.37,167.339 266.87,171.005 269,179.5C 269.333,224.167 269.667,268.833 270,313.5C 287.051,295.238 304.218,277.071 321.5,259C 337.114,254.948 343.28,260.781 340,276.5C 314.477,304.354 288.644,331.854 262.5,359C 257.643,361.21 252.976,360.877 248.5,358C 223.783,331.405 198.949,304.905 174,278.5C 169.574,270.254 171.074,263.42 178.5,258C 183.44,256.959 188.106,257.626 192.5,260C 209.333,278.167 226.167,296.333 243,314.5C 243.333,268.833 243.667,223.167 244,177.5C 245.688,173.315 248.521,170.315 252.5,168.5 Z"/></g>
<g><path style="opacity:0.947" fill="#000000" d="M 153.5,399.5 C 221.834,399.333 290.167,399.5 358.5,400C 370.753,403.194 373.92,410.36 368,421.5C 366.167,422.667 364.333,423.833 362.5,425C 291.833,425.667 221.167,425.667 150.5,425C 139.935,418.606 138.935,410.939 147.5,402C 149.611,401.155 151.611,400.322 153.5,399.5 Z"/></g>
</svg>
