<?xml version="1.0" encoding="UTF-8"?>
<!DOCTYPE svg PUBLIC "-//W3C//DTD SVG 1.1//EN" "http://www.w3.org/Graphics/SVG/1.1/DTD/svg11.dtd">
<svg xmlns="http://www.w3.org/2000/svg" version="1.1" width="512px" height="512px" style="shape-rendering:geometricPrecision; text-rendering:geometricPrecision; image-rendering:optimizeQuality; fill-rule:evenodd; clip-rule:evenodd" xmlns:xlink="http://www.w3.org/1999/xlink">
<g><path style="opacity:0.968" fill="#000001" d="M 511.5,197.5 C 511.5,203.167 511.5,208.833 511.5,214.5C 485.731,288.069 459.898,361.736 434,435.5C 424.515,456.308 408.348,467.808 385.5,470C 267.833,470.667 150.167,470.667 32.5,470C 14.1376,468.792 3.13759,459.292 -0.5,441.5C -0.5,333.167 -0.5,224.833 -0.5,116.5C 3.65084,103.517 12.3175,95.0168 25.5,91C 33.8333,90.6667 42.1667,90.3333 50.5,90C 55.151,89.2584 58.9843,87.0917 62,83.5C 65.1913,73.9128 69.5246,64.9128 75,56.5C 83.4302,47.2018 93.9302,42.0351 106.5,41C 128.863,40.0909 151.196,40.4243 173.5,42C 186.954,45.1256 198.121,51.959 207,62.5C 211.783,69.6169 216.949,76.4503 222.5,83C 226.221,85.5272 230.221,87.5272 234.5,89C 291.797,90.3133 349.13,90.98 406.5,91C 419.667,94.8333 428.167,103.333 432,116.5C 432.5,135.497 432.667,154.497 432.5,173.5C 451.222,173.052 469.888,173.552 488.5,175C 500.016,178.684 507.683,186.184 511.5,197.5 Z M 106.5,69.5 C 126.169,69.3334 145.836,69.5 165.5,70C 173.457,71.3942 179.957,75.2275 185,81.5C 192.945,96.7785 204.779,107.945 220.5,115C 224.057,116.408 227.724,117.408 231.5,118C 287.5,118.333 343.5,118.667 399.5,119C 402.102,119.935 403.602,121.768 404,124.5C 404.5,140.83 404.667,157.163 404.5,173.5C 309.833,173.333 215.166,173.5 120.5,174C 100.709,178.134 86.5421,189.301 78,207.5C 61.1361,255.091 44.4694,302.758 28,350.5C 27.3333,274.833 27.3333,199.167 28,123.5C 28.8333,121.333 30.3333,119.833 32.5,119C 66.6663,123.153 88.1663,108.653 97,75.5C 99.8426,72.8373 103.009,70.8373 106.5,69.5 Z M 122.5,202.5 C 242.167,202.333 361.834,202.5 481.5,203C 482.574,203.739 483.241,204.739 483.5,206C 458.667,277.167 433.833,348.333 409,419.5C 405.724,431.11 398.224,438.277 386.5,441C 267.419,441.996 148.419,441.663 29.5,440C 28.9415,439.275 28.6082,438.442 28.5,437.5C 53.5663,365.135 78.7329,292.801 104,220.5C 107.691,211.914 113.857,205.914 122.5,202.5 Z"/></g>
</svg>
