<?xml version="1.0" encoding="UTF-8"?>
<!DOCTYPE svg PUBLIC "-//W3C//DTD SVG 1.1//EN" "http://www.w3.org/Graphics/SVG/1.1/DTD/svg11.dtd">
<svg xmlns="http://www.w3.org/2000/svg" version="1.1" width="512px" height="512px" style="shape-rendering:geometricPrecision; text-rendering:geometricPrecision; image-rendering:optimizeQuality; fill-rule:evenodd; clip-rule:evenodd" xmlns:xlink="http://www.w3.org/1999/xlink">
<g><path style="opacity:0.991" fill="#000000" d="M 149.5,3.5 C 235.249,3.0054 320.915,3.5054 406.5,5C 435.028,33.1945 463.195,61.6945 491,90.5C 491.667,218.167 491.667,345.833 491,473.5C 486.491,491.342 475.325,502.509 457.5,507C 354.833,507.667 252.167,507.667 149.5,507C 131.658,502.491 120.491,491.325 116,473.5C 115.333,445.167 115.333,416.833 116,388.5C 121.096,381.286 127.596,379.786 135.5,384C 136.787,385.41 137.954,386.91 139,388.5C 139.333,413.5 139.667,438.5 140,463.5C 140.481,472.637 144.981,478.804 153.5,482C 251.47,483.653 349.47,483.986 447.5,483C 459.333,481.833 465.833,475.333 467,463.5C 467.5,344.834 467.667,226.167 467.5,107.5C 442.41,107.981 417.41,107.481 392.5,106C 390.622,104.457 389.122,102.624 388,100.5C 387.5,76.1689 387.333,51.8356 387.5,27.5C 309.469,27.0176 231.469,27.5176 153.5,29C 144.981,32.1959 140.481,38.3626 140,47.5C 139.667,72.5 139.333,97.5 139,122.5C 133.904,129.714 127.404,131.214 119.5,127C 118.213,125.59 117.046,124.09 116,122.5C 115.333,94.1667 115.333,65.8333 116,37.5C 120.673,19.6608 131.84,8.32748 149.5,3.5 Z M 411.5,45.5 C 424.298,57.798 436.965,70.298 449.5,83C 436.838,83.4999 424.171,83.6666 411.5,83.5C 411.5,70.8333 411.5,58.1667 411.5,45.5 Z"/></g>
<g><path style="opacity:0.972" fill="#000000" d="M 186.5,83.5 C 200.504,83.3334 214.504,83.5001 228.5,84C 235.07,87.6551 237.237,93.1551 235,100.5C 233.5,103.333 231.333,105.5 228.5,107C 214.5,107.667 200.5,107.667 186.5,107C 179.451,102.513 177.617,96.3465 181,88.5C 182.73,86.5981 184.563,84.9314 186.5,83.5 Z"/></g>
<g><path style="opacity:0.983" fill="#000000" d="M 266.5,83.5 C 291.169,83.3334 315.836,83.5 340.5,84C 347.07,87.6551 349.237,93.1551 347,100.5C 345.5,103.333 343.333,105.5 340.5,107C 315.833,107.667 291.167,107.667 266.5,107C 259.451,102.513 257.617,96.3465 261,88.5C 262.73,86.5981 264.563,84.9314 266.5,83.5 Z"/></g>
<g><path style="opacity:0.974" fill="#000000" d="M 154.5,147.5 C 160.026,146.711 165.026,147.878 169.5,151C 207.295,183.127 244.795,215.627 282,248.5C 284,253.167 284,257.833 282,262.5C 279.5,265 277,267.5 274.5,270C 238.127,301.376 201.46,332.376 164.5,363C 157.155,365.237 151.655,363.07 148,356.5C 147.5,342.837 147.333,329.171 147.5,315.5C 110.439,315.981 73.4385,315.481 36.5,314C 28.1782,310.345 22.6782,304.178 20,295.5C 19.3333,268.833 19.3333,242.167 20,215.5C 22.6782,206.822 28.1782,200.655 36.5,197C 73.4385,195.519 110.439,195.019 147.5,195.5C 147.333,181.829 147.5,168.163 148,154.5C 149.694,151.642 151.861,149.309 154.5,147.5 Z M 171.5,186.5 C 198.172,209.507 224.839,232.507 251.5,255.5C 224.878,278.284 198.378,301.284 172,324.5C 171.667,315.833 171.333,307.167 171,298.5C 169.5,295.667 167.333,293.5 164.5,292C 125.5,291.667 86.5,291.333 47.5,291C 46.5838,290.626 45.7504,290.126 45,289.5C 43.8538,278.26 43.3538,266.926 43.5,255.5C 43.6667,244.833 43.8333,234.167 44,223.5C 44.3742,222.584 44.8742,221.75 45.5,221C 85.0825,219.678 124.749,219.012 164.5,219C 167.333,217.5 169.5,215.333 171,212.5C 171.5,203.84 171.666,195.173 171.5,186.5 Z"/></g>
<g><path style="opacity:0.986" fill="#000000" d="M 228.5,147.5 C 265.835,147.333 303.168,147.5 340.5,148C 347.07,151.655 349.237,157.155 347,164.5C 345.5,167.333 343.333,169.5 340.5,171C 303.167,171.667 265.833,171.667 228.5,171C 221.221,167.171 219.054,161.337 222,153.5C 223.494,150.686 225.66,148.686 228.5,147.5 Z"/></g>
<g><path style="opacity:0.972" fill="#000000" d="M 378.5,147.5 C 392.504,147.333 406.504,147.5 420.5,148C 427.07,151.655 429.237,157.155 427,164.5C 425.5,167.333 423.333,169.5 420.5,171C 406.5,171.667 392.5,171.667 378.5,171C 371.451,166.513 369.617,160.346 373,152.5C 374.73,150.598 376.563,148.931 378.5,147.5 Z"/></g>
<g><path style="opacity:0.986" fill="#000000" d="M 302.5,211.5 C 341.835,211.333 381.168,211.5 420.5,212C 427.07,215.655 429.237,221.155 427,228.5C 425.5,231.333 423.333,233.5 420.5,235C 381.167,235.667 341.833,235.667 302.5,235C 295.132,229.932 293.632,223.432 298,215.5C 299.397,213.93 300.897,212.596 302.5,211.5 Z"/></g>
<g><path style="opacity:0.986" fill="#000000" d="M 302.5,275.5 C 341.835,275.333 381.168,275.5 420.5,276C 427.07,279.655 429.237,285.155 427,292.5C 425.5,295.333 423.333,297.5 420.5,299C 381.167,299.667 341.833,299.667 302.5,299C 295.132,293.932 293.632,287.432 298,279.5C 299.397,277.93 300.897,276.596 302.5,275.5 Z"/></g>
<g><path style="opacity:0.991" fill="#000000" d="M 266.5,339.5 C 317.834,339.333 369.168,339.5 420.5,340C 427.549,344.487 429.383,350.654 426,358.5C 424.457,360.378 422.624,361.878 420.5,363C 369.167,363.667 317.833,363.667 266.5,363C 259.451,358.513 257.617,352.346 261,344.5C 262.73,342.598 264.563,340.931 266.5,339.5 Z"/></g>
<g><path style="opacity:0.991" fill="#000000" d="M 186.5,403.5 C 237.834,403.333 289.168,403.5 340.5,404C 347.549,408.487 349.383,414.654 346,422.5C 344.457,424.378 342.624,425.878 340.5,427C 289.167,427.667 237.833,427.667 186.5,427C 179.451,422.513 177.617,416.346 181,408.5C 182.73,406.598 184.563,404.931 186.5,403.5 Z"/></g>
<g><path style="opacity:0.972" fill="#000000" d="M 378.5,403.5 C 392.504,403.333 406.504,403.5 420.5,404C 427.07,407.655 429.237,413.155 427,420.5C 425.5,423.333 423.333,425.5 420.5,427C 406.5,427.667 392.5,427.667 378.5,427C 371.451,422.513 369.617,416.346 373,408.5C 374.73,406.598 376.563,404.931 378.5,403.5 Z"/></g>
</svg>
