<?xml version="1.0" encoding="UTF-8"?>
<!DOCTYPE svg PUBLIC "-//W3C//DTD SVG 1.1//EN" "http://www.w3.org/Graphics/SVG/1.1/DTD/svg11.dtd">
<svg xmlns="http://www.w3.org/2000/svg" version="1.1" width="512px" height="512px" style="shape-rendering:geometricPrecision; text-rendering:geometricPrecision; image-rendering:optimizeQuality; fill-rule:evenodd; clip-rule:evenodd" xmlns:xlink="http://www.w3.org/1999/xlink">
<g><path style="opacity:0.936" fill="#000000" d="M 208.5,35.5 C 248.511,34.8352 279.511,51.0019 301.5,84C 341.77,80.4553 369.436,97.2886 384.5,134.5C 429.815,143.81 454.148,171.476 457.5,217.5C 455.113,261.055 432.78,288.221 390.5,299C 386.044,299.867 381.711,299.534 377.5,298C 371.55,291.083 372.55,285.416 380.5,281C 405.933,277.534 423.766,264.034 434,240.5C 444.346,204.03 432.846,176.863 399.5,159C 389.75,155.698 379.75,153.531 369.5,152.5C 359.202,112.767 334.035,97.434 294,106.5C 293.167,106.167 292.333,105.833 291.5,105.5C 269.002,62.7553 234.336,47.5886 187.5,60C 158.227,71.9377 140.727,93.4377 135,124.5C 134.419,137.552 134.753,150.552 136,163.5C 116.374,164.983 99.7077,172.65 86,186.5C 68,211.167 68,235.833 86,260.5C 98.1034,273.967 113.27,281.133 131.5,282C 137.759,285.956 138.926,291.122 135,297.5C 133.581,298.46 132.081,299.293 130.5,300C 100.916,299.461 78.4161,286.628 63,261.5C 47.0106,228.121 51.0106,197.455 75,169.5C 86.344,158.411 99.844,151.411 115.5,148.5C 112.484,103.694 130.15,69.861 168.5,47C 181.289,40.7865 194.623,36.9532 208.5,35.5 Z M 242.5,256.5 C 246.663,267.649 250.663,278.982 254.5,290.5C 246.855,291.665 239.188,291.831 231.5,291C 235.466,279.601 239.133,268.101 242.5,256.5 Z"/></g>
<g><path style="opacity:0.949" fill="#000000" d="M 181.5,186.5 C 230.834,186.333 280.168,186.5 329.5,187C 341.122,188.623 348.289,195.123 351,206.5C 351.167,231.833 351.333,257.167 351.5,282.5C 351.649,309.214 351.149,335.88 350,362.5C 346.649,370.52 340.816,375.687 332.5,378C 309.836,378.5 287.169,378.667 264.5,378.5C 264.5,385.833 264.5,393.167 264.5,400.5C 288.062,396.396 297.396,406.063 292.5,429.5C 314.833,429.5 337.167,429.5 359.5,429.5C 359.334,422.492 359.5,415.492 360,408.5C 361.892,404.942 364.725,402.442 368.5,401C 387.167,400.333 405.833,400.333 424.5,401C 428.275,402.442 431.108,404.942 433,408.5C 433.667,427.833 433.667,447.167 433,466.5C 431.427,471.071 428.26,473.904 423.5,475C 404.435,475.962 385.435,475.628 366.5,474C 363.667,472.5 361.5,470.333 360,467.5C 359.5,460.842 359.334,454.175 359.5,447.5C 337.167,447.5 314.833,447.5 292.5,447.5C 292.666,454.175 292.5,460.842 292,467.5C 290.01,471.49 286.843,473.99 282.5,475C 264.5,475.667 246.5,475.667 228.5,475C 224.157,473.99 220.99,471.49 219,467.5C 218.5,460.842 218.334,454.175 218.5,447.5C 196.167,447.5 173.833,447.5 151.5,447.5C 151.666,454.175 151.5,460.842 151,467.5C 149.5,470.333 147.333,472.5 144.5,474C 125.565,475.628 106.565,475.962 87.5,475C 82.7396,473.904 79.5729,471.071 78,466.5C 77.3333,447.167 77.3333,427.833 78,408.5C 79.8917,404.942 82.7251,402.442 86.5,401C 105.167,400.333 123.833,400.333 142.5,401C 146.275,402.442 149.108,404.942 151,408.5C 151.5,415.492 151.666,422.492 151.5,429.5C 173.833,429.5 196.167,429.5 218.5,429.5C 213.604,406.063 222.938,396.396 246.5,400.5C 246.5,393.167 246.5,385.833 246.5,378.5C 223.831,378.667 201.164,378.5 178.5,378C 170.192,375.696 164.359,370.529 161,362.5C 159.351,310.545 159.018,258.545 160,206.5C 162.913,195.147 170.079,188.48 181.5,186.5 Z M 181.5,206.5 C 230.834,206.333 280.168,206.5 329.5,207C 330,207.5 330.5,208 331,208.5C 332.657,257.083 332.99,305.75 332,354.5C 331.417,356.002 330.584,357.335 329.5,358.5C 280.541,359.662 231.541,359.828 182.5,359C 181.584,358.626 180.75,358.126 180,357.5C 178.348,308.559 178.014,259.559 179,210.5C 179.662,209.016 180.496,207.683 181.5,206.5 Z M 242.5,256.5 C 239.133,268.101 235.466,279.601 231.5,291C 239.188,291.831 246.855,291.665 254.5,290.5C 250.663,278.982 246.663,267.649 242.5,256.5 Z M 96.5,419.5 C 108.5,419.5 120.5,419.5 132.5,419.5C 132.5,431.5 132.5,443.5 132.5,455.5C 120.5,455.5 108.5,455.5 96.5,455.5C 96.5,443.5 96.5,431.5 96.5,419.5 Z M 237.5,419.5 C 249.5,419.5 261.5,419.5 273.5,419.5C 273.5,431.5 273.5,443.5 273.5,455.5C 261.5,455.5 249.5,455.5 237.5,455.5C 237.5,443.5 237.5,431.5 237.5,419.5 Z M 378.5,419.5 C 390.5,419.5 402.5,419.5 414.5,419.5C 414.5,431.5 414.5,443.5 414.5,455.5C 402.5,455.5 390.5,455.5 378.5,455.5C 378.5,443.5 378.5,431.5 378.5,419.5 Z"/></g>
<g><path style="opacity:0.922" fill="#000000" d="M 233.5,238.5 C 240.289,237.899 246.789,238.566 253,240.5C 263.068,268.871 273.235,297.205 283.5,325.5C 277.537,326.496 271.537,326.829 265.5,326.5C 263.295,319.218 261.295,311.884 259.5,304.5C 248.828,304.333 238.161,304.5 227.5,305C 224.666,312.002 222.333,319.169 220.5,326.5C 214.491,326.666 208.491,326.499 202.5,326C 213.332,297.004 223.665,267.837 233.5,238.5 Z M 242.5,256.5 C 239.133,268.101 235.466,279.601 231.5,291C 239.188,291.831 246.855,291.665 254.5,290.5C 250.663,278.982 246.663,267.649 242.5,256.5 Z"/></g>
<g><path style="opacity:0.899" fill="#000000" d="M 291.5,238.5 C 297.093,238.193 302.593,238.527 308,239.5C 308.5,268.498 308.667,297.498 308.5,326.5C 302.833,326.5 297.167,326.5 291.5,326.5C 291.5,297.167 291.5,267.833 291.5,238.5 Z"/></g>
</svg>
