<svg xmlns="http://www.w3.org/2000/svg" viewBox="0 0 463.27 68.91"><defs><style>.cls-1{fill:none;}.cls-2{font-size:36px;fill:#fff;font-family:Hooge0553, "hooge 05_53";}.cls-3{fill:#f9b233;}</style></defs><g id="Слой_2" data-name="Слой 2"><g id="Слой_1-2" data-name="Слой 1"><rect class="cls-1" width="452.67" height="68.91"/><text class="cls-2" transform="translate(125.77 32.4)">CheetahChart <tspan x="0" y="27">Backtesting</tspan></text><path class="cls-3" d="M116.24,17.77c-.06.2-.13.4-.19.61a4.24,4.24,0,0,0-.17.61c0,.31,0,.64-.29.88-.07.06-.07.24-.08.37,0,.28,0,.6-.28.77a.1.1,0,0,0,0,.07c-.14.66-.26,1.32-.4,2-.07.28-.18.56-.27.84,0,0,0,.08,0,.12-.15.91-.3,1.83-.46,2.74-.05.29-.18.57-.23.86s-.06.67-.12,1-.18.65-.25,1a8.27,8.27,0,0,0-.11,1A1.73,1.73,0,0,1,113,31.7a1.28,1.28,0,0,0-.08.9,4.32,4.32,0,0,1-.37,1.67s-.26.09-.3,0c-.54-.61-1.07-1.24-1.62-1.84-.16-.18-.42-.25-.59-.42-.46-.48-.88-1-1.39-1.55l-1.31,1.27-.9.86c-.29.29-.57.59-.85.89s-.59.62-.88.94-.37.43-.55.65c-.34.4-.66.8-1,1.18s-.84.91-1.27,1.36-.81.8-1.19,1.22-.93,1.11-1.41,1.65a12.33,12.33,0,0,1-.91.86c-.72.65-1.46,1.29-2.16,2-.45.42-.85.89-1.3,1.33s-.82.77-1.24,1.15l-.9.8-1.22,1c-.34.3-.67.62-1,.9s-.86.66-1.28,1-.6.53-.91.79-.43.37-.65.55-.58.5-.89.72c-.13.09-.31.1-.44.19-.36.26-.71.55-1.07.82s-.55.35-.81.54c-.59.44-1.15.91-1.75,1.34s-.94.6-1.4.91c-.26.17-.49.37-.73.55-.05,0-.08.1-.12.12l-.7.37c-.66.37-1.33.74-2,1.15-.2.13-.3.43-.61.36-.08,0-.18-.07-.19-.13a.32.32,0,0,1,.1-.21c.32-.29.65-.57,1-.87s.61-.66.89-1a1.91,1.91,0,0,0,.23-.45c.09-.2.17-.41.26-.61s.11-.17.09-.24c-.14-.54.34-.89.42-1.37,0-.18.24-.33.39-.49a3.65,3.65,0,0,0,1.11-1.46c0-.19.29-.33.44-.49s.15-.08.16-.14A3.07,3.07,0,0,1,82.93,49a8.54,8.54,0,0,1,.87-.93c.68-.6,1.39-1.16,2.07-1.76s1-1,1.6-1.47c.33-.29.72-.51,1-.81.48-.43.93-.91,1.39-1.36l.9-.84,1.29-1.25c.46-.45.91-.89,1.35-1.34s.58-.62.87-.93l.86-.87,1.29-1.29c.31-.31.62-.62.91-1s.67-.81,1-1.21.53-.61.8-.91.63-.64.95-1,.87-.87,1.29-1.32a6.29,6.29,0,0,0,.5-.63,7.27,7.27,0,0,1,.55-.78c.53-.55,1.09-1.06,1.62-1.6.25-.26,0-.86-.24-1.06s-.75-.6-1.12-.89-.53-.38-.79-.57a6.26,6.26,0,0,1-.66-.49c-.41-.38-.72-.87-1.31-1-.07,0-.12-.1-.18-.16s.11-.14.18-.16a7,7,0,0,0,1.28-.38c.43-.22.93-.21,1.29-.42a4.45,4.45,0,0,1,1-.3c.51-.18,1-.42,1.5-.62s.81-.28,1.2-.45a6.52,6.52,0,0,0,1.74-.69c.08-.07.25,0,.38-.05l.59-.23a1.74,1.74,0,0,1,.19-.1c.48-.14,1-.24,1.44-.41s.94-.42,1.41-.63a.52.52,0,0,1,.16-.06,9.82,9.82,0,0,0,1.57-.45c.67-.33,1.39-.46,2.06-.75a1.28,1.28,0,0,0,.29-.24Z"/><path class="cls-3" d="M48.21,63.58l.81-.06c.57,0,1.15,0,1.71,0a8.71,8.71,0,0,0,1.1-.25c.23,0,.46-.06.69-.11s.74-.2,1.11-.27.62,0,.92-.1a8.94,8.94,0,0,0,.88-.27s.08-.06.12-.06a5.46,5.46,0,0,0,2-.37c.32-.07.67,0,.93-.29.09-.09.31-.07.47-.08.34,0,.7,0,1-.28.08-.09.28-.07.42-.08.36,0,.75,0,1-.31l.08,0c.61-.14,1.23-.27,1.84-.42a4.73,4.73,0,0,0,.62-.25l.33-.1c.28-.1.55-.2.84-.28a1.21,1.21,0,0,1,.38-.06h4.23a1,1,0,0,1,.47.16,1.1,1.1,0,0,0,1,0,2.92,2.92,0,0,1,.83-.17c.06,0,.14.1.21.15a.85.85,0,0,1-.19.14l-1.69.68-1.17.42c-.48.19-.95.41-1.43.6a2.89,2.89,0,0,1-.51.11c-.3.07-.67,0-.85.34a.1.1,0,0,1-.08,0,4.49,4.49,0,0,0-1.8.36c-.4.12-.85-.07-1.23.31-.14.13-.51,0-.76.07s-.69.17-1,.25a1.29,1.29,0,0,1-.26.08c-1.6,0-3.14.6-4.77.48a5,5,0,0,0-2,.19A3.35,3.35,0,0,1,53.11,64a5.58,5.58,0,0,0-.57-.08c-1.07,0-2.14,0-3.21,0-.37,0-.74-.06-1.11-.1Z"/><path class="cls-3" d="M42.73,9.1c.16-.27.3-.48,0-.69A2,2,0,0,1,42.23,8a.38.38,0,0,1,.29-.58c.34,0,.68,0,1,0s.62-.18.94-.26A1.54,1.54,0,0,1,44.89,7h6.87a3.87,3.87,0,0,1,.69.21,5.09,5.09,0,0,0,.68.12c.54.08,1.15-.18,1.6.35h0l1.76.39a1.84,1.84,0,0,1,.36.15,1.9,1.9,0,0,0,.47.2,4.1,4.1,0,0,1,1.82.67,2.33,2.33,0,0,0,.38.08c.2.07.39.16.58.24s.07.07.1.08c.74.05,1.27.62,2,.82a11.28,11.28,0,0,1,1.79.78,2.93,2.93,0,0,1,.56.44c.06,0,.1.11.16.14.61.29,1.23.54,1.82.86s.9.61,1.35.92c0,0,.07.06.11.07a4.21,4.21,0,0,1,1.75,1.06,6,6,0,0,0,.73.45,11.77,11.77,0,0,1,1.61,1.16,8.52,8.52,0,0,1,1.3,1.66c.22.36.17.75.34,1.07.47.88.17,1.86.44,2.72a18,18,0,0,0,.32,1.82c.23.51.17,1.12.62,1.56.22.21.25.59.44.83.55.69,1.12,1.36,1.72,2,.4.44.85.86,1.29,1.27s1.06.9,1.57,1.38.86.87,1.28,1.31.79.79,1.16,1.2a15.66,15.66,0,0,1,1,1.25c.48.66.93,1.35,1.37,2a5.91,5.91,0,0,1,.39.8c0,.06,0,.2-.07.22a4,4,0,0,1-1.17.37c-2.15,0-4.31,0-6.47,0a1,1,0,0,0-.34,0A1.17,1.17,0,0,0,77,38a1.14,1.14,0,0,0,.2.23c.75.51,1.52,1,2.24,1.53.34.27.66.54,1,.79a1.64,1.64,0,0,1,.51,1,5.45,5.45,0,0,1,0,1.71,4.39,4.39,0,0,1-.52,1.18,3.49,3.49,0,0,1-.51.83,4,4,0,0,1-1.63,1.37,3.27,3.27,0,0,0-.59.35c-.37.21-.74.4-1.11.6,0,0,0,.05-.07.05l-1.82.4-1.08.27a1.78,1.78,0,0,1-.39.07l-7.53,0a8.44,8.44,0,0,0-.87,0c-.09,0-.17.12-.26.18a1.84,1.84,0,0,0,.22.17,4.31,4.31,0,0,0,1.67.44,4.78,4.78,0,0,1,1.42.58l.12,0a25.48,25.48,0,0,0,2.74.4c1.48.07,3,0,4.44,0a20.59,20.59,0,0,0,2.18-.35,5.84,5.84,0,0,1,.73,0c-.46.43-.82.74-1.15,1.08s-.72.81-1.07,1.22a5.07,5.07,0,0,0-.37.44,5.72,5.72,0,0,0-.78,1.68,2.31,2.31,0,0,1-.84,1,16.46,16.46,0,0,1-1.66,1,1.59,1.59,0,0,1-.38.07l-.82.25a1.9,1.9,0,0,1-.46.1c-1.19,0-2.38.07-3.57,0A3,3,0,0,1,65.27,56s0-.06,0-.07l-1.82-1.28c-.17-.12-.32-.26-.49-.38A11.59,11.59,0,0,0,61.17,53c-.73-.35-1.12-1.13-1.92-1.35-.19-.06-.33-.29-.5-.43L57,49.84c-.14-.11-.26-.25-.41-.35a8.73,8.73,0,0,0-2.09-1.11c-.5-.16-1-.43-1.45-.64a1,1,0,0,0-.38-.07l-1.28,0a4.16,4.16,0,0,1-1.09-.19,2.65,2.65,0,0,0-2,.08,1.23,1.23,0,0,1-.42.1c-.5,0-1,0-1.5,0s-.79-.06-1.11.28c-.08.08-.29,0-.42.07-.33.09-.65.2-1,.3l-.29.08a3.28,3.28,0,0,0-1.6.66.39.39,0,0,1-.16.07,4.47,4.47,0,0,0-2,1,7.47,7.47,0,0,1-.93.49c-.29.18-.57.4-.85.6,0,0-.11.11-.17.11-.6.08-.87.59-1.26.93s-.74,1-1.22,1.2c-1,.49-1.37,1.5-2.1,2.19a9.81,9.81,0,0,0-.79.79c-.24.29-.44.62-.67.92s-.24.3-.35.45c-.32.44-.65.88-1,1.34s-.6,1-.9,1.54a3.89,3.89,0,0,0-.61,1c-.15.6-.62,1-.87,1.5s-.4.74-.6,1.11c0,0,0,0,0,.07,0,.69-.51.54-.91.54H6.3c-.55,0-.73-.29-.5-.78a1,1,0,0,0,0-.34c0-2.76,0-5.52.08-8.28a3,3,0,0,1,.17-.7,3.22,3.22,0,0,0,.13-.6c0-.77,0-1.55,0-2.33a2.47,2.47,0,0,1,.19-.56,2.22,2.22,0,0,0,.13-.49c0-.43,0-.86,0-1.28a1,1,0,0,1,.24-.85c.11-.08.09-.32.1-.5,0-.35,0-.7,0-1.05,0-.12,0-.28.06-.34.39-.39.23-.88.29-1.32a5.2,5.2,0,0,1,.25-.76c0-.05.07-.1.07-.15A5.1,5.1,0,0,1,8,43.26c.24-.81.32-1.67.48-2.5a1.36,1.36,0,0,1,.16-.35A1.68,1.68,0,0,0,8.8,40c0-.3-.07-.66.3-.86,0,0,0,0,0,0,.13-.54.26-1.09.41-1.63A2.62,2.62,0,0,1,9.72,37s.08-.09.1-.14c.17-.54.32-1.1.5-1.64.12-.36.25-.72.4-1.07s.42-.85.62-1.28q.18-.41.33-.81c.16-.44.28-.89.46-1.31s.39-.71.56-1.08.34-.8.54-1.18.38-.66.58-1c0,0,.07-.07.08-.1a10.78,10.78,0,0,1,1.2-2.34c.25-.48.66-.87.95-1.33s.58-1.05.91-1.55c.21-.33.49-.6.73-.91s.39-.52.6-.77.63-.74.94-1.11.38-.56.6-.81.58-.64.88-.94.9-.88,1.33-1.32c.15-.15.25-.33.4-.47s.23,0,.26,0a5.7,5.7,0,0,1,.37.69c.16.33.28.68.46,1a6.72,6.72,0,0,0,.62.86c.28.37.57.72.86,1.08a4.47,4.47,0,0,0,.44.52,20.31,20.31,0,0,0,1.82,1.54,6.69,6.69,0,0,0,1.36.51c.37.15.72.34,1.08.51a1.43,1.43,0,0,0,.38.17A1.27,1.27,0,0,1,31,23c.08.08.31,0,.48,0,0-.22,0-.5-.11-.63-.41-.48-.87-.9-1.32-1.34s-.89-.83-1.32-1.27-.82-.83-1.19-1.28a12.55,12.55,0,0,1-1.05-1.38c-.31-.49-.54-1-.83-1.53-.19-.35-.42-.67-.64-1a.46.46,0,0,1-.08-.19,2.21,2.21,0,0,0-.31-1,6.64,6.64,0,0,1-.43-1.59,5.32,5.32,0,0,0-.21-.5,1.44,1.44,0,0,1-.13-.4,2.53,2.53,0,0,0-.31-1.52c-.07-.09,0-.26,0-.39,0-.7,0-1.41,0-2.11a1.88,1.88,0,0,1,.25-1.17c.15-.22.08-.6.1-.9a.86.86,0,0,1,.74-.75c1.8,0,3.61,0,5.41,0,.09,0,.21,0,.26,0,.45.45,1,.27,1.54.32a1.49,1.49,0,0,1,.9.24c.2.15.57.07.85.12A2.74,2.74,0,0,1,34.1,5c.06,0,.1.09.14.09a3,3,0,0,1,1.39.4,15.6,15.6,0,0,0,1.52.62c.38.16.77.33,1.14.52s.7.38,1.05.56c.6.3,1.2.58,1.79.9.36.18.69.42,1,.63ZM71.19,29.85c-.34-.31-.65-.55-.92-.83a9.62,9.62,0,0,1-1-1.17,3.9,3.9,0,0,1-.79-1.39c-.13-.5-.44-1-.62-1.45a11.66,11.66,0,0,1-.34-1.29c-.16-.69-.31-1.39-.43-2.09a.84.84,0,0,0-.85-.74c-.64,0-1.29,0-1.93,0a2,2,0,0,1-.47-.09,3,3,0,0,0-.69-.19c-1.73,0-3.46,0-5.19-.06-.3,0-.6,0-.84-.26-.08-.1-.4,0-.61,0a2.19,2.19,0,0,0,.17.38,1.66,1.66,0,0,0,.35.35c.27.2.57.36.83.57a11.79,11.79,0,0,0,1.35,1.12A3.79,3.79,0,0,1,60.55,24c.24.34.51.65.75,1a2.81,2.81,0,0,1,.63,1c.09.49.33.54.72.54a8,8,0,0,1,1.09.06c.44.06.87.19,1.3.27s.73-.08,1,.31c.11.18.36.28.55.41.67.47,1.32,1,2,1.4.27.17.43.56.85.47,0,0,.1.05.15.08a3.74,3.74,0,0,0,.62.51A.76.76,0,0,0,71.19,29.85ZM44.28,32.59a5.78,5.78,0,0,1,.41,1,1.32,1.32,0,0,0,.66.9,11.43,11.43,0,0,0,1.4.7c.13,0,.33,0,.49-.09s.22-.18.34-.18c.42,0,.58-.37.84-.59a1,1,0,0,0,.34-.46c.09-.32,0-.7.29-1a.15.15,0,0,0,0-.16c-.44-.38-.1-1.07-.62-1.45s-.78-1-1.54-.9a3,3,0,0,0-1.34.35A2.42,2.42,0,0,0,44.28,32.59ZM19.83,42c0-.93,0-1-.39-1.51a2.69,2.69,0,0,0-.93-.82,2.15,2.15,0,0,0-2.41.8,7.23,7.23,0,0,0-.46.87,1.62,1.62,0,0,0-.22.74,9.92,9.92,0,0,0,.39,1.39s.1.08.12.13a1.39,1.39,0,0,0,1.2.64A3,3,0,0,0,19,44a1.53,1.53,0,0,0,.87-1.59A2,2,0,0,1,19.83,42Zm5.58,10.89c.22-.09.55-.27.9-.39a1.1,1.1,0,0,0,.83-1c0-.13,0-.31.06-.38.62-.58-.22-1-.15-1.54a.88.88,0,0,0-.38-.7A11.47,11.47,0,0,0,25,48.13c-.09,0-.24.06-.36.11a2.29,2.29,0,0,1-.27.14A1.64,1.64,0,0,0,23,49.93c0,.12-.09.24-.11.36a1.34,1.34,0,0,0,0,.4c0,.11.11.22.11.32a1.18,1.18,0,0,0,.39,1A3.31,3.31,0,0,0,25.41,52.92ZM37.15,39.33c.64,0,1.13,0,1.55-.41a2.94,2.94,0,0,0,.93-1.69,2.34,2.34,0,0,0-.32-1.14A2.06,2.06,0,0,0,38,34.89a1.63,1.63,0,0,0-1.86.29c-.29.34-.71.63-.84,1a2.94,2.94,0,0,0,.41,2.55.35.35,0,0,0,.1.08C36.23,39.13,36.68,39.47,37.15,39.33ZM27,40.45a5.68,5.68,0,0,1,.82-.4A2,2,0,0,0,29,38.65a2.24,2.24,0,0,0,0-1.38,2.07,2.07,0,0,0-1.22-1.34.57.57,0,0,1-.27-.13.77.77,0,0,0-.93-.14,4.45,4.45,0,0,0-1.17.69,1.12,1.12,0,0,0-.53.93c0,.16-.15.31-.18.47a1.29,1.29,0,0,0,0,.64,7.42,7.42,0,0,0,.58,1A2.81,2.81,0,0,0,27,40.45Zm-4.73-9.58c.5,0,1,.09,1.4-.38s.71-.65.82-1a2.51,2.51,0,0,0-.38-2.17,2.19,2.19,0,0,0-1.37-.85,2.72,2.72,0,0,0-1.41.24,1.84,1.84,0,0,0-1.15,1.41,1.77,1.77,0,0,0,.24,1.8c.5.56.91,1.12,1.77,1C22.25,30.86,22.28,30.87,22.31,30.87Zm7.59-2.42.12,0a1.59,1.59,0,0,0,.73,1.68,5,5,0,0,0,1,.62A1.13,1.13,0,0,0,33,30.62c.4-.42.82-.84,1.23-1.26a.83.83,0,0,0,.09-1c-.06-.11-.17-.22-.17-.34a1.74,1.74,0,0,0-.81-1.34,3.43,3.43,0,0,0-2.44-.08c-.15.11-.37.19-.44.34C30.25,27.41,30.09,27.93,29.9,28.45Zm9.61-1.58a2.49,2.49,0,0,0,.16.93,1.72,1.72,0,0,0,1.74.88,1.74,1.74,0,0,0,1.52-1.42c0-.47.12-.93-.34-1.35-.29-.27-.47-.62-.92-.64-.08,0-.15-.12-.24-.16s-.32-.17-.43-.13c-.33.12-.77.23-.92.49C39.85,25.89,39.34,26.26,39.51,26.87Z"/></g></g></svg>