<?xml version="1.0" encoding="UTF-8"?>
<!DOCTYPE svg PUBLIC "-//W3C//DTD SVG 1.1//EN" "http://www.w3.org/Graphics/SVG/1.1/DTD/svg11.dtd">
<svg xmlns="http://www.w3.org/2000/svg" version="1.1" width="436px" height="196px" style="shape-rendering:geometricPrecision; text-rendering:geometricPrecision; image-rendering:optimizeQuality; fill-rule:evenodd; clip-rule:evenodd" xmlns:xlink="http://www.w3.org/1999/xlink">
<g><path style="opacity:0.95" fill="#fefffe" d="M 314.5,11.5 C 345.42,10.5866 359.92,25.5866 358,56.5C 356.387,73.7756 347.221,84.609 330.5,89C 296.404,92.2373 280.904,76.7373 284,42.5C 287.028,24.9731 297.195,14.6398 314.5,11.5 Z M 315.5,28.5 C 326.542,26.5984 333.709,30.9317 337,41.5C 338.598,48.4598 338.265,55.4598 336,62.5C 330.575,73.0866 322.408,75.9199 311.5,71C 304.425,63.5418 301.925,54.7084 304,44.5C 305.049,36.9807 308.882,31.6473 315.5,28.5 Z"/></g>
<g><path style="opacity:0.954" fill="#fefffe" d="M 79.5,13.5 C 92.5043,13.3334 105.504,13.5001 118.5,14C 138.141,18.3368 147.141,30.6701 145.5,51C 146.617,64.3531 141.95,75.0198 131.5,83C 128.052,84.9272 124.385,86.2606 120.5,87C 106.837,87.4999 93.1707,87.6666 79.5,87.5C 79.5,62.8333 79.5,38.1667 79.5,13.5 Z M 99.5,30.5 C 116.595,26.6786 125.262,33.3453 125.5,50.5C 126.958,60.7749 122.958,67.6083 113.5,71C 108.845,71.4992 104.179,71.6658 99.5,71.5C 99.5,57.8333 99.5,44.1667 99.5,30.5 Z"/></g>
<g><path style="opacity:0.965" fill="#fefffe" d="M 156.5,13.5 C 175.167,13.5 193.833,13.5 212.5,13.5C 212.5,18.8333 212.5,24.1667 212.5,29.5C 200.167,29.5 187.833,29.5 175.5,29.5C 175.5,33.5 175.5,37.5 175.5,41.5C 186.833,41.5 198.167,41.5 209.5,41.5C 209.5,46.8333 209.5,52.1667 209.5,57.5C 198.167,57.5 186.833,57.5 175.5,57.5C 175.5,62.1667 175.5,66.8333 175.5,71.5C 188.5,71.5 201.5,71.5 214.5,71.5C 214.5,76.8333 214.5,82.1667 214.5,87.5C 195.167,87.5 175.833,87.5 156.5,87.5C 156.5,62.8333 156.5,38.1667 156.5,13.5 Z"/></g>
<g><path style="opacity:0.957" fill="#fefffe" d="M 224.5,13.5 C 242.5,13.5 260.5,13.5 278.5,13.5C 278.5,18.8333 278.5,24.1667 278.5,29.5C 267.167,29.5 255.833,29.5 244.5,29.5C 244.5,34.5 244.5,39.5 244.5,44.5C 254.167,44.5 263.833,44.5 273.5,44.5C 273.5,49.8333 273.5,55.1667 273.5,60.5C 263.833,60.5 254.167,60.5 244.5,60.5C 244.5,69.5 244.5,78.5 244.5,87.5C 237.833,87.5 231.167,87.5 224.5,87.5C 224.5,62.8333 224.5,38.1667 224.5,13.5 Z"/></g>
<g><path style="opacity:0.944" fill="#fefffe" d="M 341.5,195.5 C 260.167,195.5 178.833,195.5 97.5,195.5C 85.6668,191.826 78.5002,183.826 76,171.5C 75.3333,155.5 75.3333,139.5 76,123.5C 78.9412,109.559 87.4412,101.392 101.5,99C 180.5,98.3333 259.5,98.3333 338.5,99C 351.771,100.938 359.938,108.438 363,121.5C 363.667,138.833 363.667,156.167 363,173.5C 359.641,184.691 352.474,192.024 341.5,195.5 Z M 249.5,109.5 C 262.404,107.425 273.237,111.092 282,120.5C 284.099,124.231 285.266,128.231 285.5,132.5C 279.833,132.5 274.167,132.5 268.5,132.5C 267.72,125.429 263.72,122.096 256.5,122.5C 248.761,121.742 245.261,125.075 246,132.5C 248.408,134.956 251.241,136.789 254.5,138C 262.986,140.606 271.319,143.606 279.5,147C 288.318,155.264 289.818,164.764 284,175.5C 279.014,180.91 272.847,184.077 265.5,185C 254.014,187.217 243.514,185.051 234,178.5C 229.769,173.411 227.269,167.578 226.5,161C 232.167,160.333 237.833,160.333 243.5,161C 244.217,166.105 246.883,169.772 251.5,172C 256.167,172.667 260.833,172.667 265.5,172C 270.145,169.975 271.645,166.475 270,161.5C 269.5,161 269,160.5 268.5,160C 257.942,156.592 247.609,152.592 237.5,148C 225.872,137.373 225.539,126.373 236.5,115C 240.741,112.651 245.075,110.818 249.5,109.5 Z M 87.5,111.5 C 101.837,111.333 116.171,111.5 130.5,112C 147.757,116.148 152.591,126.315 145,142.5C 142.554,144.959 140.054,147.292 137.5,149.5C 141.199,151.032 143.699,153.699 145,157.5C 146.045,164.125 146.711,170.792 147,177.5C 147.36,179.421 148.194,181.088 149.5,182.5C 143.202,183.496 136.868,183.83 130.5,183.5C 129.992,175.384 128.825,167.384 127,159.5C 126.097,158.299 124.931,157.465 123.5,157C 117.175,156.5 110.842,156.334 104.5,156.5C 104.5,165.5 104.5,174.5 104.5,183.5C 98.8333,183.5 93.1667,183.5 87.5,183.5C 87.5,159.5 87.5,135.5 87.5,111.5 Z M 162.5,111.5 C 180.833,111.5 199.167,111.5 217.5,111.5C 217.5,116.167 217.5,120.833 217.5,125.5C 205.167,125.5 192.833,125.5 180.5,125.5C 180.5,130.167 180.5,134.833 180.5,139.5C 191.5,139.5 202.5,139.5 213.5,139.5C 213.5,144.167 213.5,148.833 213.5,153.5C 202.5,153.5 191.5,153.5 180.5,153.5C 180.5,158.833 180.5,164.167 180.5,169.5C 193.167,169.5 205.833,169.5 218.5,169.5C 218.5,174.167 218.5,178.833 218.5,183.5C 199.833,183.5 181.167,183.5 162.5,183.5C 162.5,159.5 162.5,135.5 162.5,111.5 Z M 293.5,111.5 C 313.5,111.5 333.5,111.5 353.5,111.5C 353.5,116.167 353.5,120.833 353.5,125.5C 346.5,125.5 339.5,125.5 332.5,125.5C 332.5,144.833 332.5,164.167 332.5,183.5C 326.5,183.5 320.5,183.5 314.5,183.5C 314.5,164.167 314.5,144.833 314.5,125.5C 307.5,125.5 300.5,125.5 293.5,125.5C 293.5,120.833 293.5,116.167 293.5,111.5 Z"/></g>
<g><path style="opacity:0.945" fill="#fefffe" d="M 104.5,125.5 C 111.841,125.334 119.174,125.5 126.5,126C 129.901,127.32 131.235,129.82 130.5,133.5C 131.261,137.817 129.594,140.65 125.5,142C 118.508,142.5 111.508,142.666 104.5,142.5C 104.5,136.833 104.5,131.167 104.5,125.5 Z"/></g>
</svg>
