<?xml version="1.0" encoding="UTF-8"?>
<!DOCTYPE svg PUBLIC "-//W3C//DTD SVG 1.1//EN" "http://www.w3.org/Graphics/SVG/1.1/DTD/svg11.dtd">
<svg xmlns="http://www.w3.org/2000/svg" version="1.1" width="512px" height="512px" style="shape-rendering:geometricPrecision; text-rendering:geometricPrecision; image-rendering:optimizeQuality; fill-rule:evenodd; clip-rule:evenodd" xmlns:xlink="http://www.w3.org/1999/xlink">
<g><path style="opacity:0.968" fill="#000000" d="M 432.5,-0.5 C 436.5,-0.5 440.5,-0.5 444.5,-0.5C 452.053,2.58169 456.22,8.24836 457,16.5C 457.667,53.8333 457.667,91.1667 457,128.5C 456.75,134.499 454.25,139.333 449.5,143C 411.315,156.395 372.982,169.395 334.5,182C 319.909,184.548 311.575,178.548 309.5,164C 310.153,156.357 313.819,150.69 320.5,147C 348.015,138.051 375.349,128.717 402.5,119C 344.275,60.858 275.275,42.5246 195.5,64C 118.422,91.7498 72.2554,145.917 57,226.5C 55.8233,238.149 54.8233,249.816 54,261.5C 49.2198,272.473 41.0531,276.306 29.5,273C 19.4487,268.232 15.4487,260.232 17.5,249C 22.3588,160.587 62.3588,93.5872 137.5,48C 206.804,11.4731 277.804,7.80639 350.5,37C 375.825,48.5677 398.658,63.7344 419,82.5C 419.333,59.5 419.667,36.5 420,13.5C 421.954,6.71998 426.12,2.05332 432.5,-0.5 Z"/></g>
<g><path style="opacity:0.968" fill="#000000" d="M 78.5,511.5 C 74.5,511.5 70.5,511.5 66.5,511.5C 58.9468,508.418 54.7801,502.752 54,494.5C 53.3333,457.167 53.3333,419.833 54,382.5C 54.2497,376.501 56.7497,371.667 61.5,368C 99.6847,354.605 138.018,341.605 176.5,329C 191.091,326.452 199.425,332.452 201.5,347C 200.847,354.643 197.181,360.31 190.5,364C 162.985,372.949 135.651,382.283 108.5,392C 166.725,450.142 235.725,468.475 315.5,447C 392.578,419.25 438.745,365.083 454,284.5C 455.177,272.851 456.177,261.184 457,249.5C 461.78,238.527 469.947,234.694 481.5,238C 491.551,242.768 495.551,250.768 493.5,262C 488.641,350.413 448.641,417.413 373.5,463C 304.196,499.527 233.196,503.194 160.5,474C 135.175,462.432 112.342,447.266 92,428.5C 91.6667,451.5 91.3333,474.5 91,497.5C 89.0462,504.28 84.8796,508.947 78.5,511.5 Z"/></g>
</svg>
