<?xml version="1.0" encoding="UTF-8"?>
<!DOCTYPE svg PUBLIC "-//W3C//DTD SVG 1.1//EN" "http://www.w3.org/Graphics/SVG/1.1/DTD/svg11.dtd">
<svg xmlns="http://www.w3.org/2000/svg" version="1.1" width="512px" height="512px" style="shape-rendering:geometricPrecision; text-rendering:geometricPrecision; image-rendering:optimizeQuality; fill-rule:evenodd; clip-rule:evenodd" xmlns:xlink="http://www.w3.org/1999/xlink">
<g><path style="opacity:0.968" fill="#000000" d="M 235.5,63.5 C 307.93,58.9797 366.43,84.9797 411,141.5C 436.712,177.308 448.712,217.308 447,261.5C 442.527,270.482 435.36,273.649 425.5,271C 418.649,268.138 415.149,262.971 415,255.5C 412.967,195.572 386.801,149.738 336.5,118C 289.914,92.7272 241.914,89.7272 192.5,109C 175.97,116.423 160.97,126.09 147.5,138C 145.671,139.113 144.837,140.613 145,142.5C 156.399,153.23 167.066,164.563 177,176.5C 179.742,187.85 175.575,195.35 164.5,199C 137.833,199.667 111.167,199.667 84.5,199C 78.4991,197.664 74.3324,194.164 72,188.5C 71.3333,159.833 71.3333,131.167 72,102.5C 74.8068,95.513 79.9735,92.1797 87.5,92.5C 91.1227,92.2438 94.456,93.0771 97.5,95C 105.014,102.681 112.681,110.181 120.5,117.5C 153.101,87.3672 191.434,69.3672 235.5,63.5 Z"/></g>
<g><path style="opacity:0.968" fill="#000000" d="M 73.5,239.5 C 83.36,237.35 90.5267,240.683 95,249.5C 96.1925,311.747 122.692,359.581 174.5,393C 229.843,423.116 284.843,422.449 339.5,391C 349.245,384.754 358.245,377.587 366.5,369.5C 356.514,359.014 346.348,348.681 336,338.5C 330.97,329.775 332.137,321.942 339.5,315C 341.957,313.438 344.624,312.438 347.5,312C 373.5,311.333 399.5,311.333 425.5,312C 432.049,312.884 436.549,316.384 439,322.5C 439.667,351.167 439.667,379.833 439,408.5C 434.527,417.482 427.36,420.649 417.5,418C 416.167,417.333 414.833,416.667 413.5,416C 405.986,408.319 398.319,400.819 390.5,393.5C 335.729,443.192 272.395,458.692 200.5,440C 121.544,413.035 76.0439,358.201 64,275.5C 63.3333,266.833 63.3333,258.167 64,249.5C 66.0223,244.98 69.189,241.647 73.5,239.5 Z"/></g>
</svg>
