<?xml version="1.0" encoding="UTF-8"?>
<!-- Generated by Pixelmator Pro 3.6.17 -->
<svg width="800" height="800" viewBox="0 0 800 800" xmlns="http://www.w3.org/2000/svg">
    <g id="g1">
        <path id="path1" fill="#212121" stroke="none" d="M 154.347336 51 C 97.273048 51 51.004997 97.268005 51.004997 154.342346 L 51.004997 624.0802 C 51.004997 681.155273 97.273048 727.422546 154.347336 727.422546 L 314.002594 727.422546 C 313.730896 720.188599 314.471558 712.72168 316.361816 705.156921 L 324.888489 671.053955 L 220.110626 671.053955 L 220.110626 473.764069 C 220.110626 458.198853 232.729294 445.579803 248.294907 445.579803 L 496.432983 445.579803 L 550.366394 391.646393 C 543.884094 390.056793 537.108582 389.211273 530.137634 389.211273 L 248.294907 389.211273 C 201.597687 389.211273 163.742081 427.068359 163.742081 473.764069 L 163.742081 671.053955 L 154.347336 671.053955 C 128.404266 671.053955 107.373543 650.024719 107.373543 624.0802 L 107.373543 154.342346 C 107.373543 128.399292 128.404266 107.36853 154.347336 107.36853 L 201.321106 107.36853 L 201.321106 210.710876 C 201.321106 257.408081 239.176743 295.263672 285.873932 295.263672 L 454.979584 295.263672 C 501.675293 295.263672 539.532349 257.408081 539.532349 210.710876 L 539.532349 108.24939 C 552.993164 110.475952 565.529541 116.855774 575.303894 126.630066 L 651.795959 203.123657 C 664.129395 215.456726 671.05896 232.183533 671.05896 249.625061 L 671.05896 314.316254 C 673.723328 314.143433 676.395203 314.053223 679.063293 314.053223 L 679.142212 314.053223 C 695.564209 314.06073 712.020081 317.337616 727.427551 323.880157 L 727.427551 249.625061 C 727.427551 217.233887 714.560486 186.169128 691.656006 163.265137 L 615.16394 86.771484 C 592.25946 63.867493 561.192993 51 528.803528 51 L 154.347336 51 Z M 257.689667 210.710876 L 257.689667 107.36853 L 483.163849 107.36853 L 483.163849 210.710876 C 483.163849 226.276428 470.544769 238.895142 454.979584 238.895142 L 285.873932 238.895142 C 270.308319 238.895142 257.689667 226.276428 257.689667 210.710876 Z"/>
        <path id="path2" fill="#212121" stroke="none" d="M 679.145996 351.632233 L 679.067078 351.632233 C 657.098328 351.643524 635.1297 360.027405 618.369446 376.791412 L 396.562988 598.597839 C 383.628265 611.528809 374.4552 627.73291 370.020905 645.477722 L 352.820984 714.273682 C 345.342773 744.190247 372.440979 771.292297 402.357666 763.810303 L 471.153564 746.610352 C 488.898407 742.176025 505.102478 733.003052 518.033447 720.068359 L 739.839905 498.261871 C 773.386658 464.718842 773.386658 410.334473 739.839905 376.791412 C 723.07959 360.027405 701.114746 351.643524 679.145996 351.632233 Z"/>
    </g>
</svg>
