<?xml version="1.0" encoding="UTF-8"?>
<!DOCTYPE svg PUBLIC "-//W3C//DTD SVG 1.1//EN" "http://www.w3.org/Graphics/SVG/1.1/DTD/svg11.dtd">
<svg xmlns="http://www.w3.org/2000/svg" version="1.1" width="512px" height="512px" style="shape-rendering:geometricPrecision; text-rendering:geometricPrecision; image-rendering:optimizeQuality; fill-rule:evenodd; clip-rule:evenodd" xmlns:xlink="http://www.w3.org/1999/xlink">
<g><path style="opacity:0.982" fill="#000000" d="M 511.5,78.5 C 511.5,82.8333 511.5,87.1667 511.5,91.5C 508.571,98.827 503.237,103.66 495.5,106C 474.825,106.167 454.159,106.667 433.5,107.5C 421.368,140.825 397.535,158.158 362,159.5C 326.615,157.787 302.782,140.287 290.5,107C 198.833,106.667 107.167,106.333 15.5,106C 7.76272,103.66 2.42938,98.827 -0.5,91.5C -0.5,87.1667 -0.5,82.8333 -0.5,78.5C 1.98409,71.1842 6.98409,66.3509 14.5,64C 106.502,63.8333 198.502,63.3333 290.5,62.5C 308.044,20.1748 339.377,3.67478 384.5,13C 409.491,21.49 425.824,38.3233 433.5,63.5C 454.503,63.3334 475.503,63.5 496.5,64C 504.016,66.3509 509.016,71.1842 511.5,78.5 Z M 355.5,53.5 C 374.585,52.1027 387.085,60.4361 393,78.5C 395.036,95.1076 388.536,106.941 373.5,114C 353.67,119.335 339.837,112.502 332,93.5C 328.805,73.5427 336.638,60.2094 355.5,53.5 Z"/></g>
<g><path style="opacity:0.972" fill="#000000" d="M 511.5,249.5 C 511.5,253.5 511.5,257.5 511.5,261.5C 508.472,270.022 502.472,275.189 493.5,277C 402.5,277.333 311.5,277.667 220.5,278C 203.382,319.231 172.715,335.897 128.5,328C 103.46,319.793 86.4596,303.293 77.5,278.5C 57.5083,277.667 37.5083,277.167 17.5,277C 8.52795,275.189 2.52795,270.022 -0.5,261.5C -0.5,257.5 -0.5,253.5 -0.5,249.5C 2.52795,240.978 8.52795,235.811 17.5,234C 37.5083,233.833 57.5083,233.333 77.5,232.5C 89.9549,199.548 113.788,182.215 149,180.5C 184.431,182.291 208.264,199.791 220.5,233C 311.5,233.333 402.5,233.667 493.5,234C 502.472,235.811 508.472,240.978 511.5,249.5 Z M 141.5,224.5 C 164.226,222.687 177.226,233.021 180.5,255.5C 177.246,278.127 164.246,288.294 141.5,286C 123.975,280.126 116.142,267.959 118,249.5C 121.616,237.054 129.45,228.721 141.5,224.5 Z"/></g>
<g><path style="opacity:0.982" fill="#000000" d="M 511.5,419.5 C 511.5,423.833 511.5,428.167 511.5,432.5C 509.016,439.816 504.016,444.649 496.5,447C 475.503,447.5 454.503,447.667 433.5,447.5C 422.012,481.301 398.345,499.301 362.5,501.5C 326.924,499.394 302.924,481.727 290.5,448.5C 198.502,447.667 106.502,447.167 14.5,447C 6.98409,444.649 1.98409,439.816 -0.5,432.5C -0.5,428.167 -0.5,423.833 -0.5,419.5C 2.42938,412.173 7.76272,407.34 15.5,405C 107.167,404.667 198.833,404.333 290.5,404C 307.667,361.913 338.667,345.246 383.5,354C 408.384,362.262 425.051,378.762 433.5,403.5C 454.159,404.333 474.825,404.833 495.5,405C 503.237,407.34 508.571,412.173 511.5,419.5 Z M 359.5,394.5 C 382.944,396.405 394.11,409.072 393,432.5C 384.929,454.619 369.762,461.785 347.5,454C 330.477,442.231 326.644,427.065 336,408.5C 342.041,400.573 349.874,395.906 359.5,394.5 Z"/></g>
</svg>
