<?xml version="1.0" encoding="UTF-8"?>
<!-- Generated by Pixelmator Pro 3.6.17 -->
<svg width="800" height="800" viewBox="0 0 800 800" xmlns="http://www.w3.org/2000/svg">
    <path id="path1" fill="#ffffff" fill-opacity="0.01" stroke="none" d="M 0 0 L 800 0 L 800 800 L 0 800 Z"/>
    <path id="path2" fill="none" stroke="#000000" stroke-width="66.666664" stroke-linejoin="round" d="M 504.953308 312.976685 C 504.953308 312.976685 451.131653 464.679993 425.556671 491.165009 C 399.980011 517.651611 357.774994 518.388306 331.289978 492.811676 C 304.803345 467.234985 304.06665 425.029999 329.643341 398.545013 C 355.220001 372.059998 504.953308 312.976685 504.953308 312.976685 Z"/>
    <path id="path3" fill="none" stroke="#000000" stroke-width="66.666664" stroke-linecap="round" stroke-linejoin="round" d="M 647.486694 647.486694 C 710.825012 584.150024 750 496.649994 750 400 C 750 206.700012 593.299988 50 400 50 C 206.700012 50 50 206.700012 50 400 C 50 496.649994 89.175171 584.150024 152.512665 647.486694"/>
    <path id="path4" fill="none" stroke="#000000" stroke-width="66.666664" stroke-linecap="round" stroke-linejoin="round" d="M 400 66.666687 L 400 133.333313"/>
    <path id="path5" fill="none" stroke="#000000" stroke-width="66.666664" stroke-linecap="round" stroke-linejoin="round" d="M 647.42334 185.70166 L 595.613342 227.654968"/>
    <path id="path6" fill="none" stroke="#000000" stroke-width="66.666664" stroke-linecap="round" stroke-linejoin="round" d="M 708.708313 453.880005 L 643.751648 438.883331"/>
    <path id="path7" fill="none" stroke="#000000" stroke-width="66.666664" stroke-linecap="round" stroke-linejoin="round" d="M 91.291496 453.880005 L 156.249512 438.883331"/>
    <path id="path8" fill="none" stroke="#000000" stroke-width="66.666664" stroke-linecap="round" stroke-linejoin="round" d="M 152.577164 185.70166 L 204.386658 227.654968"/>
</svg>
