<?xml version="1.0" encoding="UTF-8"?>
<!DOCTYPE svg PUBLIC "-//W3C//DTD SVG 1.1//EN" "http://www.w3.org/Graphics/SVG/1.1/DTD/svg11.dtd">
<svg xmlns="http://www.w3.org/2000/svg" version="1.1" width="512px" height="512px" style="shape-rendering:geometricPrecision; text-rendering:geometricPrecision; image-rendering:optimizeQuality; fill-rule:evenodd; clip-rule:evenodd" xmlns:xlink="http://www.w3.org/1999/xlink">
<g><path style="opacity:0.959" fill="#000000" d="M 145.5,30.5 C 219.501,30.3333 293.501,30.5 367.5,31C 381.634,34.469 389.301,43.469 390.5,58C 388.13,85.478 385.963,112.978 384,140.5C 383.667,186.5 383.333,232.5 383,278.5C 378.25,302.584 363.75,316.418 339.5,320C 327.505,320.5 315.505,320.667 303.5,320.5C 303.972,361.873 303.472,403.206 302,444.5C 294.961,467.024 279.628,478.69 256,479.5C 227.959,477.46 212.293,462.46 209,434.5C 208.5,396.501 208.333,358.501 208.5,320.5C 196.495,320.667 184.495,320.5 172.5,320C 151.53,317.699 137.697,306.532 131,286.5C 129.692,240.204 129.025,193.871 129,147.5C 126.182,115.531 124.182,83.5306 123,51.5C 126.214,39.7826 133.714,32.7826 145.5,30.5 Z M 147.5,54.5 C 203.833,54.5 260.167,54.5 316.5,54.5C 314.788,70.6934 312.788,86.8601 310.5,103C 312.792,113.98 319.125,117.313 329.5,113C 331.81,111.363 333.31,109.196 334,106.5C 336.496,89.1989 338.663,71.8656 340.5,54.5C 348.507,54.3336 356.507,54.5003 364.5,55C 365,55.5 365.5,56 366,56.5C 364.348,83.1518 362.514,109.818 360.5,136.5C 291.166,136.667 221.833,136.5 152.5,136C 150.196,111.581 148.196,87.081 146.5,62.5C 146.551,59.7471 146.884,57.0805 147.5,54.5 Z M 152.5,160.5 C 221.5,160.5 290.5,160.5 359.5,160.5C 359.5,168.167 359.5,175.833 359.5,183.5C 290.5,183.5 221.5,183.5 152.5,183.5C 152.5,175.833 152.5,168.167 152.5,160.5 Z M 152.5,206.5 C 221.5,206.5 290.5,206.5 359.5,206.5C 359.667,230.169 359.5,253.836 359,277.5C 356.193,286.974 350.026,293.14 340.5,296C 322.833,296.333 305.167,296.667 287.5,297C 284.829,298.25 282.663,300.083 281,302.5C 279.682,347.441 279.015,392.441 279,437.5C 273.756,452.873 263.256,458.373 247.5,454C 239.685,450.218 234.851,444.051 233,435.5C 232.667,391.833 232.333,348.167 232,304.5C 230.833,300.667 228.333,298.167 224.5,297C 207.167,296.667 189.833,296.333 172.5,296C 160.641,293.141 154.141,285.641 153,273.5C 152.5,251.169 152.333,228.836 152.5,206.5 Z"/></g>
</svg>
