<?xml version="1.0" encoding="UTF-8"?>
<!DOCTYPE svg PUBLIC "-//W3C//DTD SVG 1.1//EN" "http://www.w3.org/Graphics/SVG/1.1/DTD/svg11.dtd">
<svg xmlns="http://www.w3.org/2000/svg" version="1.1" width="512px" height="512px" style="shape-rendering:geometricPrecision; text-rendering:geometricPrecision; image-rendering:optimizeQuality; fill-rule:evenodd; clip-rule:evenodd" xmlns:xlink="http://www.w3.org/1999/xlink">
<g><path style="opacity:0.962" fill="#000000" d="M 237.5,50.5 C 295.296,46.4859 345.629,63.6526 388.5,102C 404.71,117.209 419.877,133.376 434,150.5C 434.333,127.167 434.667,103.833 435,80.5C 439.524,71.3312 446.357,69.1645 455.5,74C 457.81,75.6374 459.31,77.804 460,80.5C 460.988,119.918 460.654,159.251 459,198.5C 457.337,200.917 455.171,202.75 452.5,204C 412.774,204.982 373.107,204.649 333.5,203C 327.076,197.442 325.909,190.942 330,183.5C 331.637,181.19 333.804,179.69 336.5,179C 364.506,178.833 392.506,178.333 420.5,177.5C 402.742,153.575 382.409,132.075 359.5,113C 308.734,75.5084 253.401,67.1751 193.5,88C 133.554,112.621 95.721,156.454 80,219.5C 72.6134,228.2 64.9468,228.533 57,220.5C 55.9371,218.084 55.1037,215.584 54.5,213C 75.0187,131.481 125.685,79.148 206.5,56C 216.902,53.7331 227.236,51.8998 237.5,50.5 Z"/></g>
<g><path style="opacity:0.964" fill="#000000" d="M 251.5,135.5 C 259.309,134.485 264.809,137.485 268,144.5C 268.333,181.833 268.667,219.167 269,256.5C 271.167,258.667 273.333,260.833 275.5,263C 305.5,263.333 335.5,263.667 365.5,264C 374.507,267.66 377.34,274.16 374,283.5C 371.512,287.325 368.012,289.492 363.5,290C 333.828,290.167 304.161,290.667 274.5,291.5C 266.904,300.195 257.571,302.695 246.5,299C 233.714,292.589 229.214,282.423 233,268.5C 234.846,263.652 237.846,259.652 242,256.5C 242.333,219.167 242.667,181.833 243,144.5C 244.662,140.34 247.495,137.34 251.5,135.5 Z"/></g>
<g><path style="opacity:0.962" fill="#000000" d="M 441.5,284.5 C 450.129,284.962 455.129,289.462 456.5,298C 438.91,369.918 395.91,419.918 327.5,448C 251.517,473.735 183.184,460.735 122.5,409C 106.234,393.738 91.0674,377.572 77,360.5C 76.9711,384.896 76.3045,409.229 75,433.5C 67.3333,441.5 59.6667,441.5 52,433.5C 50.3511,393.893 50.0178,354.226 51,314.5C 52.5,311 55,308.5 58.5,307C 98.2263,306.018 137.893,306.351 177.5,308C 183.924,313.558 185.091,320.058 181,327.5C 179.363,329.81 177.196,331.31 174.5,332C 146.494,332.167 118.494,332.667 90.5,333.5C 112.061,362.895 137.728,388.061 167.5,409C 225.699,442.3 284.365,442.966 343.5,411C 389.457,383.676 418.623,343.842 431,291.5C 433.701,287.748 437.201,285.415 441.5,284.5 Z"/></g>
</svg>
